<svg width="206" height="177" viewBox="0 0 206 177" fill="none" xmlns="http://www.w3.org/2000/svg">
<path d="M159.17 80.2888H14.5252C6.50329 80.2888 0 87.1366 0 95.5816V160.117C0 168.562 6.50329 175.41 14.5252 175.41H159.17C167.192 175.41 173.696 168.562 173.696 160.117V95.5816C173.696 87.1366 167.192 80.2888 159.17 80.2888Z" fill="#F8E1E9"/>
<path d="M44.9855 35.3438H24.217C20.1924 35.3438 16.9297 32.0813 16.9297 28.0542V7.29C16.9297 3.26289 20.1924 0.000354767 24.217 0.000354767H44.9855C49.0101 0.000354767 52.2733 3.26289 52.2733 7.29V28.0542C52.2733 32.0813 49.0101 35.3438 44.9855 35.3438Z" fill="#F41666"/>
<path d="M32.2777 24.8008L26.1641 18.6893L29.6567 15.1947L32.2777 17.8171L39.553 10.5389L43.0457 14.0335L32.2777 24.8008Z" fill="white"/>
<path d="M24.5343 87.668L22.8938 83.8108C21.6194 80.8145 20.8688 77.62 20.6757 74.3688L20.0769 64.2869C20.0769 64.2869 19.8317 60.039 21.3633 59.4216C22.8938 58.7986 32.1427 55.8079 32.1427 55.8079L32.3511 41.9482C32.3664 40.9456 33.1362 40.1243 34.1326 40.0337C35.1788 39.9431 36.1084 40.702 36.2358 41.7442L39.0369 64.6721C39.1337 65.4651 40.1805 65.6803 40.5804 64.9893L42.909 60.9735C43.5599 59.852 44.9482 59.3989 46.1349 59.92L46.1661 59.937C46.6017 60.1239 46.8356 60.5884 46.7319 61.0471L44.3789 71.3952C44.1847 72.2505 43.7955 73.0492 43.2421 73.7232L42.6417 74.4596C41.2188 76.2041 40.4144 78.3733 40.3555 80.6219L40.2473 84.7283L24.5343 87.668Z" fill="white"/>
<path d="M34.2935 40.8774C34.2612 40.8774 34.229 40.8774 34.1961 40.8831C33.6319 40.9284 33.2003 41.3928 33.1912 41.9592L32.9737 56.4308L32.3948 56.6177C32.3025 56.646 23.1579 59.6082 21.6721 60.2086C21.1753 60.4069 20.8077 62.3667 20.9153 64.2358L21.5146 74.3177C21.7021 77.4783 22.426 80.5594 23.6665 83.4764L25.0396 86.7049L39.4068 84.0145L39.4963 80.599C39.5603 78.1748 40.44 75.8017 41.9739 73.9213L42.5738 73.1906C43.0422 72.6129 43.3764 71.9275 43.5413 71.2082L45.8937 60.8543C45.9073 60.7977 45.8761 60.7411 45.8155 60.7127C44.993 60.3502 44.0686 60.6562 43.6341 61.4038L41.3061 65.4139C40.9379 66.0482 40.2344 66.3655 39.515 66.2182C38.7956 66.071 38.2728 65.5046 38.1838 64.7739L35.3828 41.846C35.3142 41.2852 34.8452 40.8774 34.2935 40.8774ZM24.0098 88.625L22.1026 84.139C20.7862 81.0465 20.0175 77.7727 19.8181 74.4196L19.2188 64.3377C19.1531 63.1936 19.0902 59.4214 21.0348 58.6341C22.3688 58.0903 29.2244 55.8587 31.2925 55.1903L31.4919 41.9366C31.514 40.4922 32.6135 39.3141 34.05 39.1895C35.5601 39.0649 36.8861 40.1355 37.0697 41.6364L39.8701 64.5699L42.1648 60.5485C43.0331 59.0532 44.8837 58.4472 46.4663 59.1439C47.3018 59.5063 47.7442 60.3843 47.5511 61.2339L45.1981 71.582C44.976 72.5619 44.5235 73.4851 43.8907 74.2611L43.2909 74.9974C41.9932 76.589 41.2489 78.594 41.1951 80.6444L41.0693 85.4361L24.0098 88.625Z" fill="#3577ED"/>
<path d="M24.6078 71.5625C24.2651 71.5625 23.9275 71.4832 23.6052 71.3303C22.6156 70.8545 21.8402 69.699 21.2358 67.8016C21.093 67.3541 21.34 66.8784 21.7869 66.7368C22.2338 66.5952 22.7125 66.8387 22.8547 67.2862C23.4426 69.1326 24.038 69.6538 24.3399 69.7954C24.5132 69.8803 24.6786 69.8803 24.8786 69.8067C25.125 69.7104 25.3346 69.4952 25.4529 69.2233C27.5584 64.324 23.1509 59.1866 23.1062 59.1356C22.798 58.7845 22.8343 58.2464 23.1883 57.9406C23.5418 57.629 24.0782 57.6631 24.3869 58.0199C24.5982 58.2634 29.5375 64.0237 27.0135 69.8916C26.7161 70.5883 26.161 71.132 25.4903 71.3926C25.1969 71.5059 24.9007 71.5625 24.6078 71.5625Z" fill="#3577ED"/>
<path d="M28.1916 71.7188C27.4263 71.7188 26.4753 71.3563 25.5412 70.0479C25.2682 69.6684 25.3571 69.1359 25.7383 68.8641C26.1207 68.5922 26.6509 68.6828 26.9239 69.0623C27.8444 70.348 28.4459 70.0082 28.6719 69.8779C28.9659 69.7137 29.1965 69.4192 29.3205 69.051C31.6418 62.1523 27.0757 57.9665 27.0293 57.9269C26.6798 57.6154 26.6492 57.0772 26.9619 56.7261C27.2745 56.3749 27.8115 56.3466 28.1616 56.6581C28.3853 56.862 33.6062 61.6425 30.9309 69.5891C30.6738 70.3537 30.1691 70.9824 29.5109 71.3562C29.2327 71.5148 28.7643 71.7188 28.1916 71.7188Z" fill="#3577ED"/>
<path d="M32.0678 71.5312C31.7438 71.5312 31.4311 71.4576 31.1411 71.3047C30.3974 70.9139 29.8717 70.087 29.5347 68.7729C29.418 68.3198 29.6922 67.8553 30.147 67.7364C30.6002 67.6231 31.0641 67.895 31.1808 68.3481C31.4714 69.4809 31.8254 69.7471 31.9268 69.7981C31.9681 69.8207 32.0655 69.8718 32.2932 69.7868C32.5957 69.6735 32.8512 69.396 32.9775 69.0561C35.356 62.5652 31.4612 56.3291 31.4215 56.2668C31.17 55.8703 31.2856 55.3436 31.6809 55.0944C32.0763 54.8395 32.6008 54.9584 32.8529 55.3492C33.0336 55.6324 37.2473 62.3442 34.5726 69.6395C34.2741 70.4551 33.6606 71.0895 32.8891 71.3727C32.6116 71.4803 32.3357 71.5312 32.0678 71.5312Z" fill="#3577ED"/>
<path d="M105.977 72.6326C105.977 74.7283 113.87 76.4219 123.608 76.4219C133.346 76.4219 141.24 74.7283 141.24 72.6326C141.24 70.5426 133.346 68.8434 123.608 68.8434C113.87 68.8434 105.977 70.5426 105.977 72.6326Z" fill="#3577ED"/>
<path d="M136.226 46.8569C135.881 49.6549 137.871 52.2093 140.671 52.5548C143.471 52.9003 146.021 50.9066 146.366 48.1086C146.712 45.3106 144.722 42.7561 141.921 42.4163C139.122 42.0651 136.571 44.0588 136.226 46.8569Z" fill="white"/>
<path d="M137.068 46.9619C136.929 48.0947 137.238 49.2105 137.937 50.1054C138.637 51.0003 139.645 51.5723 140.774 51.7139C141.901 51.8498 143.018 51.5441 143.915 50.8417C144.812 50.145 145.383 49.1369 145.522 48.0097C145.661 46.8769 145.352 45.7611 144.652 44.8662C143.952 43.9713 142.945 43.3992 141.816 43.2576C139.487 42.9687 137.356 44.634 137.068 46.9619ZM141.307 53.4414C141.061 53.4414 140.814 53.4301 140.566 53.3962C138.986 53.2036 137.577 52.405 136.598 51.1532C135.618 49.8958 135.187 48.3381 135.382 46.7579C135.784 43.4954 138.764 41.1675 142.024 41.5753C145.285 41.9775 147.611 44.9568 147.208 48.2136C147.013 49.7939 146.215 51.2042 144.96 52.184C143.903 53.011 142.628 53.4414 141.307 53.4414Z" fill="#3577ED"/>
<path d="M139.051 53.1252V82.0173C139.051 83.5976 138.307 85.0702 137.087 85.8915L116.729 99.6211L110.93 87.4322C110.068 85.6197 109.617 83.5976 109.617 81.5473V70.0777L139.051 53.1252Z" fill="white"/>
<path d="M116.391 100.879L110.169 87.7951C109.256 85.875 108.773 83.717 108.773 81.5477V70.0781H110.473V81.5477C110.473 83.4678 110.898 85.3709 111.704 87.0645L117.078 98.3642L136.618 85.184C137.598 84.5269 138.207 83.3092 138.207 82.0178V53.1257H139.906V82.0178C139.906 83.8982 139.032 85.6088 137.568 86.5943L116.391 100.879Z" fill="#3577ED"/>
<path d="M111.817 72.4309C124.608 74.0111 136.496 65.5887 139.251 53.0033L144.911 27.1528C144.911 27.1528 102.387 10.4043 98.5451 21.4321C95.4806 30.2283 96.0057 45.6967 96.9624 56.9794C97.6421 64.994 103.831 71.4453 111.817 72.4309Z" fill="white"/>
<path d="M114.968 73.4805C113.894 73.4805 112.809 73.4125 111.713 73.2766C103.385 72.2514 96.8252 65.4263 96.1149 57.0549C95.5734 50.6602 95.3831 41.4222 95.6527 34.5744C95.6708 34.1043 96.0656 33.7418 96.5352 33.7588C97.0036 33.7757 97.369 34.1723 97.3509 34.6424C97.0835 41.4279 97.2716 50.5809 97.8086 56.9076C98.4509 64.486 104.386 70.6598 111.921 71.5887C124.622 73.1576 136.084 64.7692 138.585 52.0762C138.676 51.6117 139.122 51.3115 139.582 51.4021C140.043 51.4928 140.343 51.9403 140.252 52.4047C137.793 64.8825 127.221 73.4748 114.968 73.4805Z" fill="#3577ED"/>
<path d="M126.529 33.8597C127.594 33.3216 128.625 32.6759 129.766 32.2058C130.017 32.1038 130.354 32.0019 130.604 32.1662C130.737 32.2511 130.792 32.3871 130.842 32.5287C131.127 33.3613 131.147 34.3694 131.331 35.236C132.306 39.8295 134.171 44.2078 137.16 47.8667C137.618 48.4275 138.243 49.0223 138.961 48.892C139.411 48.8127 139.75 48.4615 140.056 48.1274C144.876 42.8655 150.306 33.4802 147.82 26.083C147.132 24.0383 145.525 22.2089 143.425 21.7048C141.325 21.2007 138.83 22.3391 138.206 24.4065C139.711 19.3995 132.155 13.8487 127.932 13.3107C125.665 13.0218 123.214 13.1181 121.311 14.3812C121.998 13.8488 116.613 8.35469 115.888 7.77697C112.44 5.01293 108.597 3.17781 104.104 3.01356C98.2956 2.80399 92.3933 5.56234 89.0643 10.3258C86.7708 13.6052 85.8299 17.689 86.0995 21.6538C86.415 26.2983 87.9257 30.2177 91.4892 33.2536C97.5751 38.4418 107.492 37.2977 113.984 33.5312C114.194 33.4122 116.436 31.9113 116.378 31.8433C117.904 33.6388 120.361 34.7376 122.76 34.8339C124.18 34.8849 125.374 34.4374 126.529 33.8597Z" fill="#F41666"/>
<path d="M106.894 59.9766C106.589 59.9766 106.292 59.852 106.072 59.6367C105.803 59.3705 105.68 58.991 105.742 58.6172L105.756 58.5493L107.292 52.3868C107.406 51.9337 107.866 51.6561 108.322 51.7694C108.777 51.8827 109.054 52.3415 108.941 52.8003L107.609 58.1414L109.51 57.813C109.977 57.7337 110.413 58.0395 110.494 58.5039C110.574 58.9627 110.265 59.4045 109.803 59.4838L107.094 59.9596C107.028 59.971 106.96 59.9766 106.894 59.9766Z" fill="#3577ED"/>
<path d="M112.331 64.5938C112.048 64.5938 111.752 64.5711 111.443 64.5258C110.978 64.4579 110.659 64.0274 110.728 63.5629C110.798 63.0985 111.229 62.7756 111.695 62.8436C112.554 62.9795 113.211 62.8549 113.645 62.4868C114.312 61.926 114.341 60.9122 114.341 60.9009C114.351 60.4364 114.729 60.0682 115.19 60.0682C115.195 60.0682 115.198 60.0682 115.203 60.0682C115.669 60.0739 116.044 60.4533 116.04 60.9178C116.04 60.9914 116.013 62.702 114.757 63.7725C114.117 64.3219 113.304 64.5938 112.331 64.5938Z" fill="#3577ED"/>
<path d="M103.572 43.2266C103.382 43.2266 103.189 43.1642 103.031 43.034C102.939 42.9603 100.922 41.3631 98.3153 42.4732C97.8848 42.6545 97.3852 42.4562 97.2011 42.0201C97.017 41.5896 97.2181 41.0912 97.6503 40.91C101.236 39.3807 104 41.6293 104.116 41.7256C104.476 42.0258 104.525 42.5639 104.225 42.9207C104.057 43.1246 103.815 43.2266 103.572 43.2266Z" fill="#3577ED"/>
<path d="M115.178 44.2148C114.902 44.2148 114.632 44.0845 114.469 43.8353C114.21 43.4445 114.318 42.9178 114.709 42.6572C117.963 40.5106 121.086 42.2267 121.218 42.3004C121.626 42.5269 121.771 43.048 121.54 43.4558C121.311 43.8637 120.794 44.0109 120.386 43.7786C120.279 43.722 118.009 42.5156 115.646 44.0732C115.502 44.1695 115.339 44.2148 115.178 44.2148Z" fill="#3577ED"/>
<path d="M98.9817 46.6794C98.8854 47.461 99.3369 48.1576 99.9905 48.2426C100.644 48.3219 101.252 47.7555 101.348 46.9738C101.445 46.1922 100.993 45.4899 100.339 45.4106C99.6858 45.3313 99.078 45.8977 98.9817 46.6794Z" fill="#3577ED"/>
<path d="M115.888 47.5561C115.792 48.3377 116.243 49.0344 116.897 49.1137C117.55 49.193 118.158 48.6266 118.255 47.8449C118.351 47.0633 117.899 46.3666 117.246 46.2873C116.592 46.2024 115.984 46.7745 115.888 47.5561Z" fill="#3577ED"/>
<path d="M48.9261 89.4534L59.9791 134.765L81.1617 97.955C86.3486 88.8417 96.0421 83.223 106.531 83.2513V73.0051H106.612C107.442 74.9252 114.719 76.4262 123.577 76.4262C132.302 76.4262 139.492 74.9705 140.498 73.09H140.633V83.3533C147.42 83.3703 154.007 85.6302 159.375 89.7819C177.092 103.483 214.668 136.459 202.901 161.743C198.913 170.313 190.202 175.699 180.753 175.909L39.9899 176.152C39.9899 176.152 18.6713 154.029 18.4844 94.5737C18.4731 90.9714 21.0816 87.8958 24.6331 87.3067L40.7926 84.6333C44.3141 84.0499 47.7451 86.0833 48.9261 89.4534Z" fill="white"/>
<path d="M42.0012 85.3847C41.6471 85.3847 41.2891 85.413 40.93 85.4696L24.77 88.1431C21.6087 88.6698 19.322 91.3716 19.3322 94.5661C19.5049 149.558 38.0553 172.644 40.3664 175.301L180.749 175.057C189.961 174.853 198.36 169.484 202.129 161.384C213.7 136.519 175.72 103.498 158.854 90.4539C153.664 86.4382 147.192 84.218 140.629 84.201L139.782 84.1952V74.7987C136.719 76.4979 129.916 77.2738 123.575 77.2738C117.39 77.2738 110.488 76.4865 107.379 74.7873V84.1046L106.527 84.099C106.5 84.099 106.472 84.099 106.445 84.099C96.311 84.099 86.9114 89.5647 81.8984 98.3779L59.6549 137.029L48.1091 89.695C47.1728 87.0726 44.7076 85.3847 42.0012 85.3847ZM39.6278 177L39.3763 176.739C39.1542 176.513 33.8733 170.945 28.5199 157.98C23.6071 146.086 17.7297 125.424 17.6329 94.5717C17.6198 90.539 20.5047 87.1292 24.4925 86.4666L40.6519 83.7931C44.5887 83.1417 48.4053 85.4017 49.7263 89.1683L49.7501 89.2476L60.2995 132.504L80.4234 97.5339C85.6098 88.4149 95.2302 82.6773 105.68 82.411V72.1479L107.17 72.1536L107.391 72.6633C107.904 73.8528 113.964 75.5746 123.575 75.5746C133.118 75.5746 139.098 73.8981 139.747 72.686L139.988 72.2385H141.481V82.513C148.124 82.7169 154.633 85.0392 159.893 89.1116C169.422 96.4805 182.877 107.978 192.865 120.898C205.282 136.961 208.917 150.827 203.67 162.104C199.63 170.781 190.641 176.536 180.77 176.756L39.6278 177Z" fill="#3577ED"/>
<path d="M123.449 88.8008C122.793 88.8008 122.118 88.7838 121.424 88.7498C120.955 88.7215 120.595 88.325 120.618 87.8549C120.642 87.3848 121.045 87.0279 121.509 87.0506C132.186 87.5943 138.162 83.4596 138.221 83.42C138.605 83.1481 139.135 83.2387 139.405 83.6182C139.676 84.0034 139.586 84.5358 139.202 84.802C138.957 84.9776 133.433 88.8008 123.449 88.8008Z" fill="#3577ED"/>
<path d="M132.122 91.8398C131.689 91.8398 131.319 91.5114 131.277 91.0696C131.233 90.5994 131.575 90.186 132.043 90.1406C137.569 89.6139 141.48 86.1815 141.519 86.1475C141.868 85.836 142.405 85.8644 142.718 86.2156C143.03 86.5611 143.002 87.0991 142.652 87.4106C142.478 87.5692 138.305 91.2508 132.204 91.8342C132.176 91.8399 132.149 91.8398 132.122 91.8398Z" fill="#3577ED"/>
<path d="M152.936 140.898C152.482 140.898 152.105 140.542 152.087 140.083C151.884 134.793 155.084 132.686 155.22 132.601C155.616 132.346 156.141 132.465 156.394 132.856C156.646 133.252 156.531 133.773 156.139 134.028C156.023 134.107 153.622 135.761 153.786 140.015C153.804 140.485 153.438 140.881 152.969 140.898C152.958 140.898 152.947 140.898 152.936 140.898Z" fill="#3577ED"/>
<path d="M159.25 177C141.528 177 120.074 176.439 114.479 173.879C105.158 169.603 107.207 154.514 108.057 149.994C108.455 147.876 110.236 146.312 112.388 146.193L160.399 141.498C160.866 141.447 161.281 141.793 161.327 142.257C161.373 142.727 161.031 143.141 160.564 143.186L112.518 147.887C111.113 147.966 109.98 148.958 109.727 150.306C109.163 153.307 106.775 168.476 115.187 172.333C121.624 175.284 153.265 175.675 180.729 175.057C181.205 175.046 181.588 175.42 181.598 175.89C181.609 176.36 181.237 176.745 180.768 176.756C176.254 176.858 168.23 177 159.25 177Z" fill="#3577ED"/>
<path d="M112.144 153.032L95.5112 153.927L77.0594 163.674C76.1322 164.161 75.7606 165.3 76.2205 166.246C76.6691 167.163 77.7539 167.577 78.701 167.192L90.7169 162.298C90.9208 162.213 91.0709 162.496 90.8885 162.621L78.4433 171.026C77.5709 171.615 77.3517 172.805 77.9567 173.666C78.5242 174.47 79.6197 174.702 80.4654 174.192L94.5052 165.742C94.6457 165.657 94.7885 165.849 94.6673 165.957L89.209 170.947C87.9804 172.068 88.5253 174.113 90.1504 174.476C90.6642 174.589 91.2023 174.498 91.6544 174.232L97.3771 170.8L112.477 170.907C117.436 170.936 121.472 166.926 121.472 161.964C121.472 156.878 117.229 152.811 112.144 153.032Z" fill="white"/>
<path d="M94.578 164.876C94.8788 164.876 95.1739 165.012 95.3665 165.272C95.6713 165.68 95.6174 166.246 95.2419 166.586L89.7837 171.576C89.4449 171.888 89.3135 172.335 89.4319 172.777C89.5503 173.219 89.8879 173.547 90.3359 173.644C90.639 173.712 90.9522 173.661 91.2185 173.502L97.1457 169.945L112.485 170.058C112.5 170.058 112.517 170.058 112.533 170.058C114.684 170.058 116.708 169.226 118.237 167.708C119.776 166.178 120.624 164.139 120.624 161.964C120.624 159.738 119.737 157.665 118.128 156.125C116.52 154.584 114.413 153.786 112.186 153.882L95.7443 154.765L77.4579 164.423C76.9328 164.706 76.7249 165.34 76.9855 165.873C77.237 166.388 77.8504 166.62 78.3818 166.405L90.3977 161.511C90.8899 161.313 91.4484 161.511 91.6988 161.981C91.9486 162.451 91.8053 163.024 91.3652 163.324L78.9199 171.729C78.6888 171.882 78.5336 172.12 78.4832 172.397C78.4328 172.669 78.4928 172.947 78.6531 173.173C78.9629 173.615 79.5668 173.745 80.029 173.468L94.0688 165.017C94.228 164.921 94.4041 164.876 94.578 164.876ZM90.6011 175.371C90.3903 175.371 90.1779 175.348 89.9672 175.303C88.9051 175.065 88.0708 174.267 87.7898 173.219C87.5094 172.165 87.834 171.055 88.6366 170.319L88.8088 170.166L80.9053 174.924C79.6835 175.654 78.0827 175.32 77.263 174.153C76.8382 173.547 76.6779 172.817 76.8122 172.086C76.9458 171.361 77.3565 170.732 77.9688 170.319L85.0998 165.504L79.023 167.98C77.6658 168.535 76.1007 167.934 75.4584 166.62C74.7934 165.255 75.323 163.63 76.6643 162.922L95.2804 153.089L112.108 152.183C114.798 152.069 117.357 153.032 119.304 154.896C121.251 156.759 122.323 159.274 122.323 161.964C122.323 164.592 121.297 167.056 119.435 168.908C117.586 170.749 115.136 171.757 112.531 171.757C112.512 171.757 112.493 171.757 112.474 171.757L97.6108 171.65L92.0925 174.958C91.6365 175.229 91.1227 175.371 90.6011 175.371Z" fill="#3577ED"/>
<path d="M126.262 160.781C125.809 160.781 125.433 160.424 125.413 159.971C125.274 156.664 123.324 153.73 120.324 152.319C119.9 152.121 119.717 151.611 119.917 151.186C120.116 150.767 120.623 150.58 121.047 150.784C124.622 152.461 126.945 155.956 127.111 159.898C127.131 160.368 126.766 160.764 126.298 160.781C126.286 160.781 126.274 160.781 126.262 160.781Z" fill="#3577ED"/>
<path d="M31.6268 78.5625C31.1708 78.5625 30.7936 78.2 30.7783 77.7412C30.6117 72.7569 34.8 70.4064 37.0374 69.857C37.494 69.7494 37.9534 70.0269 38.065 70.48C38.176 70.9388 37.8979 71.3975 37.4425 71.5108C37.221 71.5618 32.3156 72.8532 32.4765 77.6846C32.4923 78.1547 32.1247 78.5455 31.6557 78.5625C31.6461 78.5625 31.6364 78.5625 31.6268 78.5625Z" fill="#3577ED"/>
<path d="M118.894 38.2465C114.285 38.2465 110.535 41.9961 110.535 46.6009C110.535 51.2114 114.285 54.961 118.894 54.961C123.503 54.961 127.253 51.2114 127.253 46.6009C127.253 41.9961 123.503 38.2465 118.894 38.2465ZM118.894 56.6602C113.348 56.6602 108.836 52.146 108.836 46.6009C108.836 41.0558 113.348 36.5473 118.894 36.5473C124.44 36.5473 128.953 41.0558 128.953 46.6009C128.953 52.146 124.44 56.6602 118.894 56.6602Z" fill="#3577ED"/>
<path d="M98.9093 38.2465C94.3002 38.2465 90.5509 41.9961 90.5509 46.6009C90.5509 51.2114 94.3002 54.961 98.9093 54.961C103.518 54.961 107.268 51.2114 107.268 46.6009C107.268 41.9961 103.518 38.2465 98.9093 38.2465ZM98.9093 56.6602C93.3633 56.6602 88.8516 52.146 88.8516 46.6009C88.8516 41.0558 93.3633 36.5473 98.9093 36.5473C104.455 36.5473 108.968 41.0558 108.968 46.6009C108.968 52.146 104.455 56.6602 98.9093 56.6602Z" fill="#3577ED"/>
<path d="M128.114 45.9961C127.696 45.9961 127.333 45.6902 127.274 45.2598C127.209 44.7953 127.534 44.3705 127.999 44.3025L143.613 42.1446C144.078 42.0766 144.507 42.405 144.572 42.8695C144.636 43.3339 144.311 43.7644 143.847 43.8324L128.232 45.9903C128.192 45.9903 128.153 45.9961 128.114 45.9961Z" fill="#3577ED"/>
<path d="M96.1778 152.246C96.1761 152.246 96.1744 152.246 96.1727 152.246C95.7037 152.24 95.3253 151.855 95.3281 151.391L95.4165 136.619C95.4193 136.149 95.7841 135.781 96.2713 135.775C96.7408 135.781 97.1187 136.16 97.1158 136.63L97.0275 151.396C97.0246 151.867 96.6445 152.246 96.1778 152.246Z" fill="#3577ED"/>
</svg>
