<svg width="14" height="13" viewBox="0 0 14 13" fill="none" xmlns="http://www.w3.org/2000/svg">
<path d="M13.6667 4.98666V11C13.6667 11.7333 13.0667 12.3333 12.3333 12.3333H1.66668C0.933343 12.3333 0.333344 11.7333 0.333344 11V2.99999C0.333344 2.26666 0.933343 1.66666 1.66668 1.66666H8.40001C8.36001 1.87999 8.33334 2.10666 8.33334 2.33333C8.33334 3.31999 8.76668 4.19333 9.44668 4.80666L7.00001 6.33333L1.66668 2.99999V4.33333L7.00001 7.66666L10.5333 5.45333C10.8933 5.58666 11.2667 5.66666 11.6667 5.66666C12.42 5.66666 13.1067 5.40666 13.6667 4.98666ZM9.66668 2.33333C9.66668 3.44 10.56 4.33333 11.6667 4.33333C12.7733 4.33333 13.6667 3.44 13.6667 2.33333C13.6667 1.22666 12.7733 0.333328 11.6667 0.333328C10.56 0.333328 9.66668 1.22666 9.66668 2.33333Z" fill="white"/>
</svg>
