<svg width="40" height="40" viewBox="0 0 40 40" fill="none" xmlns="http://www.w3.org/2000/svg">
<path d="M29.8789 32.7779H11.2322C10.5339 32.7779 10 32.2492 10 31.5578V9.55368C10 8.86224 10.5339 8.3335 11.2322 8.3335H21.5824C22.2806 8.3335 22.8145 8.86224 22.8145 9.55368V16.5494H29.8789C30.5772 16.5494 31.1111 17.0782 31.1111 17.7696V31.5578C31.1111 32.2085 30.5772 32.7779 29.8789 32.7779ZM12.4643 30.3376H28.6468V18.9898H21.5824C20.8841 18.9898 20.3502 18.4611 20.3502 17.7696V10.7739H12.4643V30.3376Z" fill="white"/>
<path d="M29.8788 18.9898C29.5503 18.9898 29.2628 18.8678 29.0163 18.6238L20.7197 10.4078C20.2269 9.91974 20.2269 9.14696 20.7197 8.69955C21.2126 8.21148 21.993 8.21148 22.4448 8.69955L30.7414 16.8748C31.2342 17.3629 31.2342 18.1357 30.7414 18.5831C30.4949 18.8678 30.2074 18.9898 29.8788 18.9898Z" fill="white"/>
<path d="M25.6897 27.8159H15.4216C14.7234 27.8159 14.1895 27.2871 14.1895 26.5957C14.1895 25.9042 14.7234 25.3755 15.4216 25.3755H25.6486C26.3468 25.3755 26.8808 25.9042 26.8808 26.5957C26.8808 27.2871 26.3468 27.8159 25.6897 27.8159Z" fill="white"/>
<path d="M25.6897 23.3825H15.4216C14.7234 23.3825 14.1895 22.8538 14.1895 22.1623C14.1895 21.4709 14.7234 20.9421 15.4216 20.9421H25.6486C26.3468 20.9421 26.8808 21.4709 26.8808 22.1623C26.8808 22.8538 26.3468 23.3825 25.6897 23.3825Z" fill="white"/>
<path d="M18.0092 18.9898H15.4216C14.7234 18.9898 14.1895 18.4611 14.1895 17.7696C14.1895 17.0782 14.7234 16.5494 15.4216 16.5494H18.0092C18.7074 16.5494 19.2413 17.0782 19.2413 17.7696C19.2413 18.4611 18.7074 18.9898 18.0092 18.9898Z" fill="white"/>
</svg>
