<svg width="41" height="40" viewBox="0 0 41 40" fill="none" xmlns="http://www.w3.org/2000/svg">
<g clip-path="url(#clip0_1444_4356)">
<path d="M12.9167 30C12.3972 30 12 29.6028 12 29.0834V26.4556C12 23.4 13.6806 21.7195 16.7361 21.7195H22.0833C25.1389 21.7195 26.8194 23.4 26.8194 26.4556V29.0834C26.8194 29.6028 26.4222 30 25.9028 30C25.3833 30 24.9861 29.6028 24.9861 29.0834V26.4556C24.9861 24.4084 24.1 23.5528 22.0833 23.5528H16.7361C14.6889 23.5528 13.8333 24.4389 13.8333 26.4556V29.0834C13.8333 29.5723 13.4361 30 12.9167 30Z" fill="white"/>
<path d="M19.3944 20.9555C16.8278 20.9555 14.75 18.8777 14.75 16.3111C14.75 13.7444 16.8278 11.6666 19.3944 11.6666C21.9611 11.6666 24.0389 13.7444 24.0389 16.3111C24.0389 18.8777 21.9611 20.9555 19.3944 20.9555ZM19.3944 13.5C17.8361 13.5 16.5833 14.7527 16.5833 16.3111C16.5833 17.8694 17.8361 19.1222 19.3944 19.1222C20.9528 19.1222 22.2056 17.8694 22.2056 16.3111C22.2056 14.7527 20.9528 13.5 19.3944 13.5Z" fill="white"/>
<path d="M29.4166 30C28.8972 30 28.4999 29.6028 28.4999 29.0833V26.4555C28.4999 24.6528 27.7972 24.1028 27.2472 23.8583C26.7888 23.6444 26.6055 23.0944 26.8194 22.6361C27.0333 22.1778 27.5833 21.9944 28.0416 22.2083C29.0805 22.6972 30.3333 23.8583 30.3333 26.4555V29.0833C30.3333 29.5722 29.9055 30 29.4166 30Z" fill="white"/>
<path d="M24.2834 20.6807C23.9167 20.6807 23.5806 20.4668 23.4278 20.1001C23.2445 19.6418 23.4584 19.0918 23.9473 18.9084C25.0167 18.4807 25.7195 17.4723 25.7195 16.3112C25.7195 15.1501 25.0167 14.1418 23.9473 13.714C23.489 13.5307 23.2445 12.9807 23.4278 12.5223C23.6112 12.064 24.1612 11.8195 24.6195 12.0029C26.3917 12.7057 27.5223 14.3862 27.5223 16.3112C27.5223 18.2362 26.3917 19.8862 24.6195 20.6195C24.4973 20.6501 24.4056 20.6807 24.2834 20.6807Z" fill="white"/>
</g>
<path d="M12.274 11.5221L12.5934 13.4793L10.9551 12.5778L10.7141 12.4452L10.473 12.5778L8.80739 13.4943L9.1292 11.5221L9.16996 11.2723L8.99275 11.0916L7.60522 9.67633L9.49575 9.38567L9.75846 9.34528L9.87192 9.10491L10.7016 7.34727L11.5313 9.10491L11.6448 9.34528L11.9075 9.38567L13.798 9.67633L12.4105 11.0916L12.2333 11.2723L12.274 11.5221Z" fill="white" stroke="white"/>
<defs>
<clipPath id="clip0_1444_4356">
<rect width="18.3333" height="18.3333" fill="white" transform="translate(12 11.6666)"/>
</clipPath>
</defs>
</svg>
