<svg width="41" height="40" viewBox="0 0 41 40" fill="none" xmlns="http://www.w3.org/2000/svg">
<path d="M27.8332 28.3336H13.4998C11.9332 28.3336 10.6665 27.0482 10.6665 25.4585V16.258C10.6665 14.6682 11.9332 13.3828 13.4998 13.3828H27.8332C29.3998 13.3828 30.6665 14.6682 30.6665 16.258V25.4585C30.6665 27.0482 29.3998 28.3336 27.8332 28.3336ZM13.4998 15.4123C13.0332 15.4123 12.6665 15.7844 12.6665 16.258V25.4585C12.6665 25.932 13.0332 26.3041 13.4998 26.3041H27.8332C28.2998 26.3041 28.6665 25.932 28.6665 25.4585V16.258C28.6665 15.7844 28.2998 15.4123 27.8332 15.4123H13.4998Z" fill="white"/>
<path d="M24.633 28.3336H16.6997C16.133 28.3336 15.6997 27.8938 15.6997 27.3188V12.0636C15.6997 10.9135 16.5997 10.0002 17.733 10.0002H23.5997C24.733 10.0002 25.633 10.9135 25.633 12.0636V27.3188C25.633 27.8938 25.1997 28.3336 24.633 28.3336ZM17.6997 26.3041H23.633V12.0636C23.633 12.0636 23.633 12.0298 23.5997 12.0298H17.733C17.733 12.0298 17.6997 12.0298 17.6997 12.0636V26.3041Z" fill="white"/>
</svg>
