<svg width="144" height="19" viewBox="0 0 144 19" fill="none" xmlns="http://www.w3.org/2000/svg">
<defs>
<linearGradient id="paint0_linear_1219_11665" x1="77.0629" y1="-14.8379" x2="125.867" y2="34.4686" gradientUnits="userSpaceOnUse">
<stop offset="0.24" stop-color="#3577ED"/>
<stop offset="0.5" stop-color="#F41666"/>
<stop offset="0.75" stop-color="#FC5A1A"/>
</linearGradient>
</defs>
<path d="M139.724 0.129883H63.711C61.3493 0.129883 59.4348 2.02491 59.4348 4.36253V14.7675C59.4348 17.1051 61.3493 19.0001 63.711 19.0001H139.724C142.085 19.0001 144 17.1051 144 14.7675V4.36253C144 2.02491 142.085 0.129883 139.724 0.129883Z" fill="url(#paint0_linear_1219_11665)"/>
<path d="M15.24 0.13208V4.12141H10.1421V18.9942H5.1518V4.12141H0V0.13208H15.24Z" fill="black"/>
<path d="M27.9633 18.9942L26.8161 15.4544H20.5171L19.3699 18.9942H14.3258L20.7301 1.47963C21.0766 0.501708 22.0646 0 23.666 0C25.2674 0 26.2554 0.501708 26.6288 1.47963L33.0074 18.9942H27.9633V18.9942ZM21.8247 11.3852H25.4816L23.6672 5.73198L21.8258 11.3852H21.8247Z" fill="black"/>
<path d="M37.3397 18.9942C36.2452 18.9942 35.4176 18.2017 35.4176 17.1183V0.13208H40.3821V15.0049H48.2017V18.9942H37.3386H37.3397Z" fill="black"/>
<path d="M66.8505 18.9942H60.7658L55.7217 11.9135V18.9942H50.9445V0.13208H55.7217V7.60787L60.8185 0.13208H66.236L59.6174 9.40498L66.8505 18.9942V18.9942Z" fill="black"/>
<path d="M72.2704 13.6631L72.954 13.0524C73.7711 14.0929 74.8726 14.6213 76.2575 14.6213C78.059 14.6213 79.3268 13.6468 79.3268 12.1939C79.3268 11.7153 79.2097 11.3353 78.9592 11.0549C78.759 10.8405 78.6923 10.7409 78.3751 10.559C78.0415 10.377 77.9911 10.3272 77.5908 10.1789C77.3742 10.0966 77.2408 10.0468 77.1576 10.0132C77.0406 9.97962 76.2563 9.73282 76.1568 9.69922C75.0728 9.35277 74.539 9.12104 73.8214 8.62628C73.0875 8.13037 72.7539 7.42126 72.7539 6.47925C72.7539 5.47236 73.1202 4.69605 73.8554 4.15031C74.573 3.60573 75.4907 3.34155 76.6075 3.34155C77.8588 3.34155 78.9592 3.70538 79.9437 4.44809L79.4099 5.1908C78.5261 4.54658 77.5919 4.21635 76.5899 4.21635C74.9054 4.21635 73.7372 4.99267 73.7372 6.42943C73.7372 7.00761 74.0204 7.50237 74.3049 7.78392C74.4383 7.93223 74.6713 8.06432 74.9885 8.21263C75.3058 8.36095 75.5563 8.47681 75.7553 8.54286C75.9391 8.62512 76.2563 8.72477 76.707 8.87308C76.7573 8.8893 76.8404 8.9229 76.9575 8.95535C77.3906 9.10366 77.7254 9.2033 77.9583 9.28557C78.1749 9.36784 78.4757 9.51731 78.8257 9.69806C79.1758 9.87997 79.459 10.0781 79.6428 10.2762C80.0092 10.6725 80.344 11.3492 80.344 12.1591C80.344 13.2158 79.9437 14.0419 79.1594 14.6363C78.3587 15.2307 77.3742 15.5274 76.2235 15.5274C74.5718 15.5274 73.0699 14.8333 72.2692 13.6619L72.2704 13.6631Z" fill="white"/>
<path d="M82.7192 13.9597C81.6516 12.9192 81.1178 11.4338 81.1178 9.48493C81.1178 7.53603 81.6352 6.10043 82.67 4.99389C83.6873 3.88735 85.0557 3.34277 86.7566 3.34277C88.708 3.34277 90.41 4.25118 91.2938 5.88607L90.4767 6.38199C89.6924 4.99505 88.2912 4.25234 86.7402 4.25234C85.339 4.25234 84.2211 4.71465 83.404 5.62305C82.5705 6.54768 82.1526 7.81875 82.1526 9.45364C82.1526 11.0885 82.5869 12.3098 83.4368 13.2182C84.2866 14.1266 85.3554 14.5889 86.6559 14.5889C88.3743 14.5889 89.875 13.7303 90.8104 12.5913L91.4776 13.2193C90.3269 14.6561 88.4914 15.5309 86.6231 15.5309C85.0721 15.5309 83.7704 15.0025 82.7192 13.9621V13.9597Z" fill="white"/>
<path d="M92.6306 15.3467V3.55713H93.6315V15.3467H92.6306Z" fill="white"/>
<path d="M103.052 4.48175H96.8962V8.85808H102.519V9.78271H96.8962V14.4232H102.935V15.3478H95.8954V4.11909C95.8954 3.73904 96.1623 3.55713 96.4959 3.55713H103.052V4.48175V4.48175Z" fill="white"/>
<path d="M112.672 3.55706H113.623V15.0338C113.623 15.2817 113.372 15.4463 113.089 15.4463C112.806 15.4463 112.572 15.3304 112.388 15.0824L105.314 5.10853V15.3466H104.364V3.91972C104.364 3.65555 104.598 3.47363 104.931 3.47363C105.398 3.47363 105.515 3.65555 105.699 3.91972L112.672 13.6781V3.55706V3.55706Z" fill="white"/>
<path d="M116.91 13.9597C115.842 12.9192 115.309 11.4338 115.309 9.48493C115.309 7.53603 115.826 6.10043 116.86 4.99389C117.878 3.88735 119.245 3.34277 120.947 3.34277C122.899 3.34277 124.601 4.25118 125.485 5.88607L124.668 6.38199C123.883 4.99505 122.482 4.25234 120.931 4.25234C119.53 4.25234 118.412 4.71465 117.595 5.62305C116.761 6.54768 116.343 7.81875 116.343 9.45364C116.343 11.0885 116.778 12.3098 117.628 13.2182C118.477 14.1266 119.546 14.5889 120.847 14.5889C122.565 14.5889 124.066 13.7303 125.001 12.5913L125.668 13.2193C124.518 14.6561 122.682 15.5309 120.814 15.5309C119.263 15.5309 117.961 15.0025 116.91 13.9621V13.9597Z" fill="white"/>
<path d="M133.939 4.48175H127.783V8.85808H133.405V9.78271H127.783V14.4232H133.822V15.3478H126.782V4.11909C126.782 3.73904 127.049 3.55713 127.382 3.55713H133.939V4.48175V4.48175Z" fill="white"/>
</svg>
