<svg width="291" height="213" viewBox="0 0 291 213" fill="none" xmlns="http://www.w3.org/2000/svg">
<path d="M247.243 177.168C247.243 180.132 245.107 182.539 242.473 182.539C239.839 182.539 237.703 180.132 237.703 177.168C237.703 174.203 239.839 171.8 242.473 171.8C245.107 171.8 247.243 174.203 247.243 177.168Z" fill="#3577ED"/>
<path d="M290.484 213H0.516464C0.231204 213 0 212.74 0 212.419C0 212.097 0.231204 211.838 0.516464 211.838H290.484C290.769 211.838 291 212.097 291 212.419C291 212.74 290.769 213 290.484 213Z" fill="#3577ED"/>
<path d="M153.049 76.3008H149.766C147.319 76.3008 145.336 74.0684 145.336 71.3129V67.6195C145.336 64.864 147.319 62.6316 149.766 62.6316H153.049C155.496 62.6316 157.479 64.864 157.479 67.6195V71.3129C157.479 74.0684 155.496 76.3008 153.049 76.3008Z" fill="#3577ED"/>
<path d="M150.6 72.2266L148.5 69.8625L149.7 68.5138L150.6 69.5253L153.1 66.7117L154.3 68.0603L150.6 72.2266Z" fill="white"/>
<path d="M233.974 104.336H230.748C229.161 104.336 227.875 102.89 227.875 101.104V97.4723C227.875 95.6857 229.161 94.2401 230.748 94.2401H233.974C235.56 94.2401 236.846 95.6857 236.846 97.4723V101.104C236.846 102.89 235.56 104.336 233.974 104.336Z" fill="#3577ED"/>
<path d="M231.763 101.324L230.211 99.5806L231.098 98.5809L231.763 99.3287L233.609 97.2518L234.496 98.2476L231.763 101.324Z" fill="white"/>
<path d="M77.4697 177.434C77.3375 177.434 77.2053 177.375 77.1048 177.263C76.9026 177.034 76.9026 176.666 77.1044 176.441L113.157 135.829C113.359 135.605 113.686 135.605 113.888 135.829C114.09 136.058 114.09 136.426 113.888 136.651L77.835 177.263C77.7342 177.375 77.6019 177.434 77.4697 177.434Z" fill="#3577ED"/>
<path d="M131.407 186.57C131.294 186.57 131.18 186.528 131.085 186.442C130.862 186.241 130.826 185.877 131.003 185.625L168.903 132.146C169.081 131.894 169.406 131.855 169.629 132.053C169.852 132.254 169.888 132.619 169.71 132.871L131.811 186.349C131.709 186.493 131.559 186.57 131.407 186.57Z" fill="#3577ED"/>
<path d="M58.4382 185.107H206.815C204.241 163.539 212.252 151.529 219.471 145.235C226.375 139.22 233.684 137.209 235.634 136.755L235.206 133.089H79.9751L47.158 176.732L58.4382 185.107ZM208.005 186.27H58.128L45.6172 176.98L79.4962 131.926H236.112L236.787 137.705L236.295 137.798C236.211 137.813 227.753 139.472 220.072 146.185C209.803 155.153 205.715 168.419 207.92 185.603L208.005 186.27Z" fill="#3577ED"/>
<path d="M189.866 186.27C189.664 186.27 189.472 186.134 189.389 185.909L167.238 126.067C166.718 124.233 165.22 123.001 163.51 123.001H155.352C155.067 123.001 154.836 122.741 154.836 122.42C154.836 122.098 155.067 121.838 155.352 121.838H163.51C165.664 121.838 167.551 123.385 168.215 125.687L190.343 185.463C190.453 185.758 190.328 186.099 190.065 186.223C190 186.254 189.932 186.27 189.866 186.27Z" fill="#3577ED"/>
<path d="M242.472 177.434C242.226 177.434 242.007 177.232 241.964 176.949L234.078 125.648C233.549 123.835 232.06 122.622 230.362 122.622H222.204C221.919 122.622 221.688 122.358 221.688 122.04C221.688 121.718 221.919 121.459 222.204 121.459H230.362C232.523 121.459 234.416 123.013 235.073 125.331L235.09 125.408L242.982 176.751C243.03 177.069 242.842 177.368 242.561 177.426C242.531 177.43 242.501 177.434 242.472 177.434Z" fill="#3577ED"/>
<path d="M131.403 186.57C131.199 186.57 131.005 186.431 130.924 186.206L109.58 126.809C109.164 125.344 107.965 124.356 106.596 124.356H97.868C97.5829 124.356 97.3516 124.096 97.3516 123.775C97.3516 123.453 97.5829 123.193 97.868 123.193H106.596C108.409 123.193 109.999 124.495 110.558 126.437L131.882 185.768C131.988 186.067 131.861 186.408 131.597 186.528C131.533 186.555 131.467 186.57 131.403 186.57Z" fill="#3577ED"/>
<path d="M77.96 175.449C73.3091 175.449 69.5251 179.708 69.5251 184.944C69.5251 190.18 73.3091 194.439 77.96 194.439C82.6109 194.439 86.3949 190.18 86.3949 184.944C86.3949 179.708 82.6109 175.449 77.96 175.449ZM77.96 195.602C72.7396 195.602 68.4922 190.819 68.4922 184.944C68.4922 179.068 72.7396 174.286 77.96 174.286C83.1804 174.286 87.4278 179.068 87.4278 184.944C87.4278 190.819 83.1804 195.602 77.96 195.602Z" fill="#3577ED"/>
<path d="M131.405 176.492C126.754 176.492 122.97 180.751 122.97 185.987C122.97 191.219 126.754 195.478 131.405 195.478C136.056 195.478 139.84 191.219 139.84 185.987C139.84 180.751 136.056 176.492 131.405 176.492ZM131.405 196.641C126.185 196.641 121.938 191.862 121.938 185.987C121.938 180.107 126.185 175.329 131.405 175.329C136.626 175.329 140.873 180.107 140.873 185.987C140.873 191.862 136.626 196.641 131.405 196.641Z" fill="#3577ED"/>
<path d="M189.858 176.492C185.207 176.492 181.424 180.751 181.424 185.987C181.424 191.219 185.207 195.478 189.858 195.478C194.509 195.478 198.293 191.219 198.293 185.987C198.293 180.751 194.509 176.492 189.858 176.492ZM189.858 196.641C184.638 196.641 180.391 191.862 180.391 185.987C180.391 180.107 184.638 175.329 189.858 175.329C195.079 175.329 199.326 180.107 199.326 185.987C199.326 191.862 195.079 196.641 189.858 196.641Z" fill="#3577ED"/>
<path d="M46.388 142.449C29.5338 142.449 15.822 157.885 15.822 176.856C15.822 195.827 29.5338 211.259 46.388 211.259C63.242 211.259 76.9537 195.827 76.9537 176.856C76.9537 157.885 63.242 142.449 46.388 142.449ZM46.388 212.422C28.9643 212.422 14.7891 196.466 14.7891 176.856C14.7891 157.242 28.9643 141.286 46.388 141.286C63.8114 141.286 77.9867 157.242 77.9867 176.856C77.9867 196.466 63.8114 212.422 46.388 212.422Z" fill="#3577ED"/>
<path d="M46.3867 207.77C31.2426 207.77 18.9219 193.899 18.9219 176.854C18.9219 159.806 31.2426 145.939 46.3867 145.939C50.9843 145.939 55.5336 147.245 59.5428 149.71C59.7931 149.865 59.885 150.217 59.7483 150.5C59.6116 150.779 59.2983 150.884 59.0473 150.729C55.1897 148.357 50.8118 147.102 46.3867 147.102C31.8121 147.102 19.9548 160.449 19.9548 176.854C19.9548 193.259 31.8121 206.607 46.3867 206.607C55.3773 206.607 63.6714 201.53 68.5733 193.031C68.7286 192.759 69.0485 192.686 69.2878 192.86C69.527 193.035 69.5949 193.395 69.4396 193.662C64.3466 202.495 55.7285 207.77 46.3867 207.77Z" fill="#3577ED"/>
<path d="M242.474 142.449C225.62 142.449 211.908 157.885 211.908 176.856C211.908 195.827 225.62 211.259 242.474 211.259C259.328 211.259 273.04 195.827 273.04 176.856C273.04 157.885 259.328 142.449 242.474 142.449ZM242.474 212.422C225.05 212.422 210.875 196.466 210.875 176.856C210.875 157.242 225.05 141.286 242.474 141.286C259.897 141.286 274.073 157.242 274.073 176.856C274.073 196.466 259.897 212.422 242.474 212.422Z" fill="#3577ED"/>
<path d="M242.48 147.102C227.906 147.102 216.049 160.449 216.049 176.854C216.049 193.259 227.906 206.607 242.48 206.607C257.054 206.607 268.911 193.259 268.911 176.854C268.911 160.449 257.054 147.102 242.48 147.102ZM242.48 207.77C227.336 207.77 215.016 193.899 215.016 176.854C215.016 159.806 227.336 145.939 242.48 145.939C257.624 145.939 269.944 159.806 269.944 176.854C269.944 193.899 257.624 207.77 242.48 207.77Z" fill="#3577ED"/>
<path d="M99.4746 201.472L85.9832 202.584C85.6792 202.611 85.4144 202.355 85.392 202.011L85.275 200.213C85.2526 199.872 85.4809 199.573 85.7852 199.55L99.2763 198.434C99.5806 198.411 99.8454 198.667 99.8678 199.008L99.9849 200.805C100.007 201.146 99.7786 201.445 99.4746 201.472Z" fill="#3577ED"/>
<path d="M208.607 202.587L195.131 203.916C194.827 203.943 194.559 203.691 194.532 203.35L194.393 201.552C194.366 201.211 194.591 200.909 194.895 200.882L208.37 199.553C208.674 199.522 208.942 199.774 208.969 200.119L209.109 201.913C209.135 202.254 208.911 202.556 208.607 202.587Z" fill="#3577ED"/>
<path d="M158.306 199.484L145.02 202.348C144.72 202.414 144.431 202.193 144.374 201.856L144.073 200.084C144.015 199.747 144.211 199.422 144.511 199.356L157.797 196.492C158.096 196.426 158.385 196.647 158.443 196.984L158.744 198.755C158.802 199.092 158.605 199.418 158.306 199.484Z" fill="#3577ED"/>
<path d="M118.836 184.742L108.643 174.731C108.413 174.507 108.389 174.115 108.589 173.856L109.642 172.499C109.843 172.239 110.192 172.212 110.421 172.437L120.614 182.448C120.844 182.672 120.868 183.068 120.668 183.324L119.615 184.684C119.415 184.94 119.065 184.967 118.836 184.742Z" fill="#3577ED"/>
<path d="M51.1648 176.851C51.1648 179.816 49.029 182.219 46.3951 182.219C43.7604 182.219 41.625 179.816 41.625 176.851C41.625 173.886 43.7604 171.48 46.3951 171.48C49.029 171.48 51.1648 173.886 51.1648 176.851Z" fill="#3577ED"/>
<path d="M96.1875 117.546L98.043 119.952L99.0329 123.964L98.6249 126.308C98.4944 127.056 99.0039 127.754 99.6822 127.754H105.269C106.162 127.754 106.886 126.94 106.886 125.932V123.89C106.886 123.08 106.69 122.282 106.319 121.584L103.916 117.057L98.5708 113.193L96.1875 117.546Z" fill="white"/>
<path d="M96.8321 117.488L98.5154 119.674L99.569 123.941L99.1376 126.421C99.1052 126.607 99.1479 126.797 99.255 126.945C99.3621 127.088 99.5201 127.173 99.6881 127.173H105.275C105.881 127.173 106.375 126.615 106.375 125.933V123.891C106.375 123.185 106.205 122.488 105.882 121.883L103.541 117.473L98.7402 114.004L96.8321 117.488ZM105.275 128.336H99.6881C99.2099 128.336 98.7612 128.096 98.4576 127.681C98.1535 127.266 98.032 126.724 98.1239 126.197L98.5085 123.988L97.5823 120.236L95.5547 117.604L98.4131 112.388L104.303 116.643L106.768 121.286C107.187 122.073 107.408 122.972 107.408 123.891V125.933C107.408 127.259 106.451 128.336 105.275 128.336Z" fill="#3577ED"/>
<path d="M66.5769 106.656V110.067L85.6441 120.798C87.3925 121.783 88.4671 123.825 88.3903 126.026L86.8805 169.309L58.2891 106.656H66.5769Z" fill="#3577ED"/>
<path d="M92.7371 190.079L84.797 194.625L79.5156 182.944L87.4561 178.394L92.7371 190.079Z" fill="#3577ED"/>
<path d="M86.8817 169.895C86.8748 169.895 86.8682 169.895 86.861 169.895C86.5763 169.883 86.3542 169.612 86.3652 169.29L87.875 126.008C87.9435 124.043 86.9777 122.202 85.4139 121.322L66.0613 110.432V107.242H58.2899C58.0048 107.242 57.7734 106.983 57.7734 106.661C57.7734 106.339 58.0048 106.08 58.2899 106.08H67.0942V109.711L85.8759 120.283C87.8017 121.365 88.9916 123.632 88.9072 126.054L87.3975 169.336C87.3868 169.65 87.1578 169.895 86.8817 169.895Z" fill="#3577ED"/>
<path d="M48.4794 105.02L47.2299 107.21C45.2023 110.764 44.3732 114.922 44.754 118.972C45.1114 122.774 46.8226 126.254 49.4094 128.731L50.8758 130.138C52.4259 131.622 53.7115 133.428 54.6646 135.451L77.5908 184.167C78.1175 185.287 79.1508 185.988 80.2764 185.988H91.4568C92.8388 185.988 93.7313 184.341 93.0998 182.958L64.0532 119.309L65.752 110.178V106.659L48.4794 105.02Z" fill="white"/>
<path d="M91.4568 186.57H80.547C79.0599 186.57 77.7037 185.648 77.0079 184.171L54.2081 135.723C53.2819 133.754 52.0482 132.026 50.5412 130.58L49.0748 129.177C46.3241 126.542 44.6073 122.937 44.2403 119.035C43.8416 114.795 44.7492 110.485 46.7954 106.897L48.0446 104.707C48.1992 104.436 48.5184 104.358 48.7583 104.532C48.9983 104.707 49.0682 105.067 48.914 105.335L47.6645 107.524C45.7449 110.888 44.8938 114.934 45.2674 118.911C45.6065 122.519 47.1966 125.848 49.7441 128.29L51.2105 129.696C52.8177 131.235 54.1333 133.08 55.1212 135.18L77.9206 183.625C78.4371 184.726 79.4435 185.408 80.547 185.408H91.4568C91.9244 185.408 92.3489 185.136 92.5923 184.691C92.8361 184.241 92.854 183.691 92.6402 183.222L63.5939 119.574C63.4634 119.287 63.5636 118.938 63.817 118.791C64.0711 118.643 64.3824 118.756 64.5125 119.043L93.5592 182.691C93.9386 183.524 93.9069 184.497 93.4741 185.295C93.0413 186.094 92.2873 186.57 91.4568 186.57Z" fill="#3577ED"/>
<path d="M81.7808 188.375L80.1746 194.161L80.0637 197.509C80.0252 198.68 80.9038 199.629 81.9412 199.532L104.313 197.47C105.321 197.377 106.017 196.292 105.777 195.184L105.586 194.304L97.6066 192.707L92.0997 188.099L90.7566 187.828L90.2281 189.216C89.7064 190.587 88.5406 191.506 87.2195 191.587L86.1356 191.653C84.5442 191.754 83.0964 190.622 82.6199 188.913L82.4722 188.382L81.7808 188.375Z" fill="white"/>
<path d="M80.6813 194.257L80.5729 197.532C80.5598 197.927 80.693 198.3 80.9489 198.575C81.2043 198.85 81.54 198.985 81.8919 198.951L104.264 196.893C104.594 196.862 104.894 196.668 105.087 196.369C105.281 196.067 105.347 195.683 105.268 195.323L105.157 194.811L97.3889 193.257L91.8824 188.645L91.0629 188.483L90.6959 189.448C90.0927 191.029 88.7688 192.071 87.2408 192.168L86.1572 192.234C84.3276 192.351 82.6677 191.052 82.1202 189.083L82.1188 189.08L80.6813 194.257ZM81.7928 200.117C81.2154 200.121 80.6559 199.869 80.2351 199.416C79.7696 198.916 79.5165 198.214 79.5406 197.49L79.6539 194.06L81.3954 187.789L82.846 187.804L83.1056 188.738C83.5119 190.196 84.7425 191.153 86.1001 191.072L87.184 191.006C88.3171 190.936 89.299 190.161 89.7466 188.987L90.4366 187.177L92.3031 187.549L97.81 192.161L106 193.8L106.272 195.048C106.422 195.742 106.296 196.47 105.925 197.048C105.555 197.625 104.98 197.989 104.348 198.051L81.9766 200.109C81.915 200.117 81.854 200.117 81.7928 200.117Z" fill="#3577ED"/>
<path d="M100.626 128.336C100.596 128.336 100.565 128.332 100.533 128.324C100.253 128.27 100.067 127.968 100.118 127.65L100.424 125.759L100.215 124.147C100.173 123.83 100.369 123.535 100.651 123.489C100.934 123.442 101.196 123.659 101.237 123.977L101.47 125.779L101.134 127.859C101.089 128.138 100.871 128.336 100.626 128.336Z" fill="#3577ED"/>
<path d="M102.572 128.336C102.541 128.336 102.51 128.332 102.479 128.324C102.198 128.27 102.012 127.964 102.063 127.65L102.369 125.759L102.16 124.147C102.119 123.83 102.314 123.535 102.596 123.489C102.879 123.442 103.141 123.659 103.182 123.977L103.416 125.779L103.079 127.859C103.034 128.138 102.816 128.336 102.572 128.336Z" fill="#3577ED"/>
<path d="M104.509 128.336C104.479 128.336 104.447 128.332 104.416 128.324C104.136 128.27 103.949 127.964 104.001 127.65L104.306 125.759L104.097 124.147C104.056 123.83 104.252 123.535 104.534 123.489C104.817 123.442 105.078 123.659 105.12 123.977L105.353 125.779L105.017 127.859C104.971 128.138 104.754 128.336 104.509 128.336Z" fill="#3577ED"/>
<path d="M48.4843 105.021H48.4839C46.7858 103.668 46.0131 101.261 46.5689 99.002C48.2797 92.0454 53.3046 77.6089 66.3432 71.7723C68.6201 70.7531 71.125 70.5632 73.4993 71.2453L80.4317 73.2334L81.0315 80.5776C81.2163 82.8409 75.2842 95.9636 75.2842 95.9636L66.5739 106.66H53.057C51.4188 106.66 49.8209 106.087 48.4843 105.021Z" fill="white"/>
<path d="M70.6319 71.4204C69.2412 71.4204 67.8564 71.7188 66.5339 72.3118C53.9559 77.943 48.9376 91.55 47.066 99.1577C46.5716 101.169 47.2609 103.336 48.782 104.549H48.7824C50.0387 105.549 51.5165 106.08 53.0566 106.08H66.3463L74.8555 95.631C77.1242 90.6044 80.6409 82.1518 80.5166 80.6326L79.9502 73.6992L73.3712 71.8118C72.4663 71.5521 71.5477 71.4204 70.6319 71.4204ZM66.8007 107.242H53.0566C51.3017 107.242 49.617 106.638 48.185 105.498C46.3099 104.002 45.4601 101.328 46.0706 98.8477C47.9935 91.0307 53.1596 77.0477 66.1521 71.2305C68.5495 70.1569 71.1342 69.967 73.6267 70.684L80.9122 72.773L81.5454 80.5241C81.7382 82.8882 76.3584 94.8714 75.7442 96.2278L75.7125 96.2976L66.8007 107.242Z" fill="#3577ED"/>
<path d="M86.8303 50.4345C86.8303 50.4345 90.3488 52.349 91.901 56.6509C92.2163 57.5229 93.775 59.6157 93.8821 60.6892C93.9568 61.4411 92.6447 61.1233 92.5796 61.972C92.4921 63.1153 92.2663 64.3439 91.8631 65.6693C91.1648 67.9675 89.0811 69.3511 86.9598 68.9093L83.8734 68.2621C82.6594 68.0102 81.4763 68.8511 81.1561 70.1921L80.4296 73.2344L71.125 70.8432L75.7329 66.4561C76.3399 65.8747 76.5971 64.9524 76.3812 64.092C75.7811 61.693 75.1971 56.6393 79.7035 53.5543C85.7747 49.392 86.8303 50.4345 86.8303 50.4345Z" fill="white"/>
<path d="M86.4876 50.8661C86.4883 50.8661 86.489 50.8661 86.49 50.8661H86.4876ZM93.3662 60.7488H93.3696H93.3662ZM72.2449 70.5308L80.0569 72.5383L80.6546 70.0347C81.0423 68.4109 82.4957 67.3799 83.9648 67.6861L87.0512 68.3295C88.9033 68.7132 90.7601 67.4884 91.372 65.477C91.7428 64.2562 91.9752 63.0587 92.0623 61.9193C92.1246 61.1016 92.7819 60.8612 93.1348 60.7295C93.1999 60.7062 93.2867 60.6752 93.3497 60.6442C93.236 60.09 92.6542 59.1056 92.2221 58.3732C91.8664 57.7686 91.5596 57.2492 91.4198 56.8617C89.9651 52.8311 86.6356 50.967 86.6022 50.9515L86.5396 50.9166C86.3492 50.8662 84.9 50.6646 79.9695 54.0441C75.835 56.8771 76.2564 61.4503 76.8759 63.9268C77.1448 65.0003 76.8259 66.1669 76.064 66.8916L72.2449 70.5308ZM80.7968 73.9219L70 71.147L75.3964 66.0041C75.8508 65.5701 76.0409 64.8802 75.8818 64.2446C75.3192 61.9929 74.539 56.4043 79.4327 53.052C84.9048 49.3004 86.5916 49.5524 87.0953 49.9283C87.5312 50.1763 90.8434 52.1761 92.3766 56.4237C92.4775 56.7028 92.785 57.226 93.0821 57.7298C93.6871 58.753 94.3127 59.8149 94.3926 60.6171C94.4762 61.4581 93.7876 61.7138 93.4567 61.834C93.3428 61.8766 93.1303 61.9542 93.0897 62.0123C92.9971 63.2525 92.7471 64.543 92.3494 65.853C91.573 68.407 89.2142 69.965 86.8629 69.4728L83.7765 68.8294C82.8331 68.6317 81.901 69.2945 81.6525 70.337L80.7968 73.9219Z" fill="#3577ED"/>
<path d="M79.2417 75.2408C79.2417 75.2408 82.6191 87.2551 88.0337 96.1224C93.1295 104.47 100.304 109.571 99.6321 113.566C99.6321 113.566 98.4239 117.616 94.7642 117.868C93.0344 117.984 91.3594 117.151 90.1832 115.717L81.6381 105.307C80.3112 103.691 79.1977 101.87 78.3314 99.8971L71.125 83.4841L79.2417 75.2408Z" fill="white"/>
<path d="M70.6652 86.0725L75.6308 95.215L67.0469 106.086L70.6652 86.0725Z" fill="#3577ED"/>
<path d="M99.6315 113.562H99.6346H99.6315ZM94.4338 118.457C92.7092 118.457 91.0389 117.616 89.8035 116.108L81.2585 105.699C79.9033 104.048 78.7664 102.191 77.8791 100.176L70.2192 86.3751C70.0681 86.1039 70.1414 85.7434 70.3835 85.5729C70.6252 85.4023 70.944 85.4876 71.0952 85.7589L78.7939 99.6373C79.6388 101.56 80.7231 103.335 82.017 104.912L90.562 115.322C91.6724 116.674 93.194 117.391 94.7327 117.283C97.8507 117.07 98.9983 113.822 99.1305 113.415C99.4397 111.361 97.1769 108.695 94.3171 105.327C92.1662 102.792 89.7285 99.9202 87.6072 96.4477C82.2005 87.5921 80.4135 79.2014 80.396 79.12C80.3312 78.8061 80.5034 78.4922 80.7813 78.4186C81.056 78.345 81.3366 78.5388 81.4017 78.8527C81.4189 78.9341 83.1673 87.1231 88.4587 95.7889C90.5328 99.1878 92.9398 102.021 95.0639 104.524C98.1479 108.156 100.584 111.028 100.139 113.671L100.121 113.748C100.067 113.93 98.7566 118.174 94.795 118.445C94.6745 118.453 94.554 118.457 94.4338 118.457Z" fill="#3577ED"/>
<path d="M71.1763 55.8339C71.0479 54.2023 71.1687 52.4505 72.0182 51.1173C72.8672 49.788 74.6294 49.1059 75.841 50.0128C76.2769 47.4665 77.6569 45.1451 79.5799 43.715C80.3456 43.1492 81.1881 42.719 82.0503 42.3664C83.7798 41.661 85.6604 41.2501 87.4639 41.661C87.9817 41.7772 88.4872 41.9594 88.9706 42.2035C90.8619 43.1453 92.3493 44.901 93.4721 46.8194C93.7582 47.3116 94.0229 47.8154 94.2681 48.3309C94.5081 48.8347 94.7636 49.3501 94.8589 49.9198C95.0597 51.1135 95.4711 52.2102 95.1461 53.4388C94.8514 54.5472 94.0887 55.4929 93.1322 55.927C91.7873 56.5354 90.2445 56.1362 88.9179 55.4773C87.5913 54.8185 86.3569 53.9078 84.9662 53.4466C83.9908 53.121 82.7372 53.1365 82.1859 54.1015C81.9253 54.5549 81.802 55.2294 81.8571 55.7719C81.8757 55.9541 81.9745 56.0897 82.0561 56.2447C82.2569 56.6323 82.4215 57.0392 82.5478 57.4617C82.8009 58.3104 82.9021 59.2134 82.8339 60.1048C82.8239 60.2327 82.8095 60.3644 82.7499 60.4768C82.6001 60.752 82.2248 60.7597 81.9818 60.5892C81.7383 60.4148 81.5893 60.1203 81.4288 59.8529C81.2033 59.4731 80.9378 59.1282 80.6407 58.8181C80.4093 58.5778 80.0956 58.2019 79.7572 58.198C78.937 58.1864 78.7938 58.9615 78.652 59.6863C78.5893 60.0079 78.6261 60.3335 78.6303 60.659C78.6406 61.5 78.5421 62.3449 78.3379 63.1549C78.1737 63.806 77.9299 64.4532 77.4965 64.9221C77.1738 65.2709 76.5572 65.6623 76.0955 65.453C75.9288 65.3794 75.8145 65.2127 75.6923 65.0693C75.5132 64.8639 75.3111 64.7051 75.1083 64.5307C74.2813 63.8254 73.5799 62.9417 73.0132 61.965C71.9555 60.1435 71.3464 57.9965 71.1763 55.8339Z" fill="#F41666"/>
<path d="M79.748 73.0367L73.4992 71.2424C71.1248 70.5603 68.62 70.7502 66.3431 71.7694C61.6932 73.8506 58.0666 77.0286 55.2422 80.567C55.5693 81.0204 55.9363 81.4351 56.3164 81.8033C58.0183 83.4543 60.4988 83.6015 62.4011 82.2528C64.0114 81.1134 66.1854 79.5322 68.4981 77.7223C74.6874 72.8701 78.3336 72.7887 79.748 73.0367Z" fill="#3577ED"/>
<path d="M75.7269 66.4536C75.7269 66.4536 65.5687 60.4464 58.278 65.5157C52.1441 69.7826 53.3709 74.0574 55.3338 76.7974C56.7448 78.7662 59.1618 79.4096 61.248 78.4678C63.0136 77.6733 65.4048 76.5533 67.9682 75.2395C77.0525 70.5772 80.4236 73.2319 80.4236 73.2319C80.4236 73.2319 81.4131 70.3408 75.7269 66.4536Z" fill="white"/>
<path d="M65.1696 64.0711C62.926 64.0711 60.6102 64.575 58.5516 66.0089C56.0343 67.7568 54.6079 69.6365 54.3114 71.5897C54.0745 73.1477 54.5545 74.7754 55.7375 76.4264C56.9802 78.1626 59.1675 78.7789 61.0582 77.9263C62.6526 77.2054 65.1086 76.066 67.756 74.7057C74.7128 71.1363 78.4575 71.768 79.948 72.3493C79.813 71.3688 79.0452 69.4001 75.4757 66.9546C75.1865 66.7918 70.3745 64.0711 65.1696 64.0711ZM59.3091 79.4648C57.634 79.4648 56.0016 78.6471 54.9336 77.1589C53.556 75.2366 53.0044 73.295 53.2933 71.3921C53.6421 69.0978 55.2283 66.9507 58.0086 65.0168C65.4643 59.8352 75.5432 65.6834 75.9688 65.9353L75.9967 65.9508C81.9835 70.0473 80.9541 73.3027 80.9076 73.4383L80.6703 74.1321L80.1294 73.7058C80.1022 73.6864 76.8041 71.3417 68.1843 75.7637C65.5187 77.1318 63.0465 78.2828 61.4421 79.0036C60.7507 79.3176 60.0259 79.4648 59.3091 79.4648Z" fill="#3577ED"/>
<path d="M74.4882 65.6778C74.0544 65.4065 73.6134 65.1546 73.1658 64.9143C72.8727 64.7593 72.577 64.6082 72.2785 64.4648C72.0519 64.3563 71.8164 64.3059 71.5754 64.2478C71.0951 64.1315 70.612 64.0268 70.1276 63.9377C69.0526 63.7323 67.9681 63.5888 66.8797 63.5268C65.718 63.461 64.5505 63.4804 63.3943 63.6277C62.2219 63.7749 61.0595 64.054 59.9491 64.5035C59.7267 64.5965 59.5067 64.6934 59.2891 64.7981C60.1481 65.3406 61.18 65.7127 62.2339 65.9336C63.9231 66.2902 65.6874 66.294 67.4306 66.294C68.2573 66.294 69.0843 66.2979 69.911 66.2979C70.3245 66.2979 70.7377 66.2979 71.1512 66.2979C71.4542 66.2979 71.7727 66.3328 72.0743 66.294C72.3587 66.2591 72.6121 66.4219 72.8745 66.5421C73.498 66.825 74.1109 67.1428 74.7103 67.4877C74.8243 67.5497 74.9376 67.6195 75.0508 67.6853C75.6937 68.069 76.3423 68.4953 77.0644 68.5961C77.1205 68.6039 77.1807 68.6077 77.23 68.5767C77.3013 68.5302 77.3233 68.4295 77.3254 68.3365C77.3353 67.7978 76.9091 67.3947 76.5155 67.0885C75.861 66.5808 75.1841 66.108 74.4882 65.6778Z" fill="#3577ED"/>
<path d="M79.952 73.4664C80.1964 73.4432 80.4412 73.3773 80.6802 73.4626C80.935 73.5594 81.1774 73.7571 81.3829 73.947C81.8267 74.3539 82.1735 74.8772 82.4668 75.4275C83.1313 76.6754 83.4312 78.059 83.6488 79.4813C83.8981 81.1052 84.0644 82.7755 84.616 84.3141C85.0918 85.6434 85.7956 86.8333 86.625 87.9145C87.5819 89.1625 88.684 90.3212 89.9194 91.2126C90.2871 91.4762 90.6958 90.8716 90.3839 90.5344C89.384 89.4454 88.2867 88.4843 87.3584 87.31C86.4274 86.1318 85.6489 84.7831 85.2213 83.2755C84.3557 80.2177 84.8222 76.5824 82.963 73.9315C82.5309 73.3153 81.9796 72.7533 81.3433 72.4162C80.767 72.1139 79.7302 71.9511 79.5629 72.8929C79.5161 73.1564 79.6724 73.4974 79.952 73.4664Z" fill="#3577ED"/>
<path d="M81.0309 73.4429C81.7791 73.4855 82.5183 73.5979 83.1963 73.9777C83.8952 74.373 84.4809 74.9311 85.0183 75.5628C86.0767 76.803 86.9568 78.2176 88.0372 79.4423C89.0795 80.6204 90.2381 81.6746 91.4741 82.5815C92.6861 83.4728 94.0988 84.4495 95.5707 84.5657C95.8076 84.5851 95.9712 84.1859 95.7756 84.0076C94.8432 83.1783 93.7249 82.6551 92.7043 81.9691C91.679 81.2792 90.7084 80.4925 89.8094 79.6089C88.8801 78.6942 88.0448 77.6828 87.2605 76.6092C86.473 75.5357 85.6942 74.4583 84.6802 73.6366C83.6476 72.8034 82.1926 72.1136 80.9324 72.6251C80.5423 72.784 80.6026 73.4157 81.0309 73.4429Z" fill="#3577ED"/>
<path d="M80.1019 197.266C79.8302 197.266 79.6023 197.025 79.5868 196.719C79.5706 196.398 79.7882 196.123 80.0729 196.103L96.2434 195.065C96.5247 195.049 96.7723 195.293 96.7885 195.611C96.8046 195.933 96.587 196.208 96.3023 196.227L80.1318 197.266C80.1218 197.266 80.1119 197.266 80.1019 197.266Z" fill="#3577ED"/>
<path d="M83.7508 95.9102C83.4654 95.9102 83.2344 95.6505 83.2344 95.3289C83.2344 95.0073 83.4633 94.7477 83.7467 94.7477C83.7829 94.7438 84.4326 94.7206 84.7142 94.1084C84.8457 93.8255 85.1563 93.7131 85.4104 93.8604C85.6638 94.0076 85.7626 94.3602 85.6318 94.6431C85.0558 95.8946 83.8035 95.9102 83.7508 95.9102Z" fill="#3577ED"/>
<path d="M90.078 57.1544C90.078 57.5573 89.8367 57.8789 89.5392 57.8789C89.2414 57.8789 89 57.5573 89 57.1544C89 56.7553 89.2414 56.4297 89.5392 56.4297C89.8367 56.4297 90.078 56.7553 90.078 57.1544Z" fill="#3577ED"/>
<path d="M89.5438 65.7031C89.517 65.7031 89.4898 65.7031 89.4626 65.6993C88.1735 65.4707 87.8044 64.1571 87.7892 63.4945C87.782 63.1768 88.0072 62.9095 88.2923 62.9017C88.5712 62.8862 88.8125 63.1419 88.8218 63.4635C88.8256 63.5604 88.8807 64.4167 89.6237 64.5485C89.9054 64.5989 90.0978 64.8972 90.0531 65.2149C90.0131 65.5017 89.7935 65.7031 89.5438 65.7031Z" fill="#3577ED"/>
<path d="M64.5426 45.1966L63.6967 40.0459C64.428 38.205 64.8139 36.151 64.7347 33.9845C64.4762 26.9155 59.3164 21.2068 53.032 21.0479C46.1613 20.8697 40.5649 27.1985 40.7629 34.9418C40.9409 41.8868 45.8666 47.6032 52.0263 48.0179C54.6403 48.1962 57.0766 47.4134 59.1108 45.9755L63.1192 46.8011C63.9618 46.9755 64.6986 46.1461 64.5426 45.1966Z" fill="#3577ED"/>
<path d="M118.447 30.8374L117.578 25.5433C118.329 23.6521 118.726 21.5438 118.644 19.3153C118.378 12.0525 113.077 6.18881 106.62 6.02216C99.5599 5.84001 93.8092 12.3432 94.0131 20.2997C94.1956 27.4347 99.2569 33.31 105.586 33.7363C108.272 33.9184 110.775 33.1123 112.866 31.6358L116.984 32.4845C117.851 32.6667 118.607 31.8102 118.447 30.8374Z" fill="#FE5E31"/>
<path d="M192.79 36.5016L191.935 31.2928C192.674 29.4326 193.063 27.363 192.983 25.1733C192.722 18.0307 187.509 12.2639 181.159 12.0972C174.217 11.919 168.563 18.3136 168.763 26.1384C168.943 33.1531 173.919 38.9316 180.143 39.3502C182.784 39.5284 185.246 38.7378 187.301 37.2845L191.351 38.1216C192.203 38.296 192.947 37.4589 192.79 36.5016Z" fill="#3577ED"/>
<path d="M121.788 172.258L114.18 169.293L117.994 156.907L125.602 159.875L121.788 172.258Z" fill="#3577ED"/>
<path d="M115.665 162.345L110.848 165.054L108.627 167.29C107.85 168.069 107.854 169.437 108.635 170.212L125.471 186.924C126.23 187.676 127.407 187.49 127.949 186.525L128.38 185.761L123.867 178.184L122.998 170.519L122.239 169.247L120.984 169.778C119.746 170.305 118.35 169.995 117.381 168.984L116.586 168.151C115.419 166.93 115.137 164.973 115.902 163.399L116.139 162.911L115.665 162.345Z" fill="white"/>
<path d="M111.141 165.545L108.972 167.727C108.707 167.99 108.563 168.355 108.564 168.754C108.565 169.153 108.712 169.517 108.978 169.781L125.814 186.492C126.062 186.736 126.392 186.849 126.719 186.794C127.047 186.744 127.336 186.531 127.513 186.217L127.764 185.771L123.371 178.396L122.502 170.734L122.039 169.955L121.167 170.323C119.736 170.936 118.15 170.583 117.03 169.413L116.235 168.579C114.893 167.176 114.571 164.929 115.45 163.123L115.452 163.115L111.141 165.545ZM126.559 187.973C126.036 187.973 125.528 187.756 125.131 187.364L108.294 170.653C107.812 170.172 107.533 169.482 107.531 168.758C107.529 168.033 107.803 167.339 108.283 166.859L110.556 164.572L115.778 161.634L116.773 162.82L116.356 163.681C115.704 165.022 115.943 166.684 116.938 167.727L117.733 168.56C118.564 169.428 119.74 169.688 120.802 169.238L122.44 168.541L123.496 170.312L124.365 177.978L128.997 185.752L128.386 186.841C128.047 187.442 127.493 187.845 126.865 187.946C126.763 187.961 126.661 187.973 126.559 187.973Z" fill="#3577ED"/>
<path d="M121.053 179.707C120.928 179.707 120.802 179.657 120.702 179.552L108.822 167.162C108.612 166.941 108.6 166.573 108.794 166.34C108.988 166.104 109.314 166.088 109.524 166.309L121.405 178.699C121.614 178.916 121.626 179.285 121.432 179.521C121.331 179.645 121.192 179.707 121.053 179.707Z" fill="#3577ED"/>
<path d="M149.076 191.521L141.266 193.73L138.43 181.015L146.239 178.806L149.076 191.521Z" fill="#3577ED"/>
<path d="M139.59 188.636L138.523 194.577L138.721 197.925C138.79 199.092 139.751 199.933 140.774 199.716L162.837 195.061C163.831 194.852 164.423 193.689 164.083 192.62L163.812 191.763L155.729 191.104L149.828 187.163L148.467 187.05L148.069 188.492C147.676 189.914 146.601 190.965 145.294 191.197L144.222 191.391C142.649 191.674 141.105 190.721 140.474 189.074L140.278 188.566L139.59 188.636Z" fill="white"/>
<path d="M139.04 194.616L139.233 197.887C139.256 198.282 139.423 198.635 139.703 198.879C139.982 199.123 140.327 199.216 140.676 199.146L162.738 194.492C163.063 194.422 163.344 194.197 163.509 193.875C163.673 193.55 163.704 193.166 163.593 192.813L163.435 192.317L155.566 191.674L149.666 187.733L148.835 187.663L148.559 188.663C148.104 190.31 146.883 191.5 145.372 191.771L144.301 191.965C142.491 192.294 140.721 191.197 139.996 189.302L139.994 189.298L139.04 194.616ZM140.451 200.332C139.955 200.332 139.468 200.146 139.07 199.797C138.561 199.355 138.245 198.685 138.202 197.96L138 194.538L139.156 188.097L140.6 187.946L140.944 188.845C141.483 190.248 142.796 191.062 144.137 190.818L145.209 190.624C146.33 190.422 147.235 189.539 147.572 188.318L148.092 186.438L149.983 186.589L155.884 190.535L164.181 191.213L164.566 192.422C164.779 193.096 164.72 193.837 164.405 194.453C164.089 195.073 163.551 195.503 162.928 195.635L140.866 200.286C140.728 200.317 140.589 200.332 140.451 200.332Z" fill="#3577ED"/>
<path d="M138.664 197.68C138.415 197.68 138.196 197.474 138.155 197.191C138.109 196.874 138.301 196.575 138.582 196.525L154.571 193.607C154.852 193.557 155.118 193.774 155.163 194.088C155.209 194.405 155.017 194.704 154.736 194.754L138.747 197.672C138.72 197.676 138.692 197.68 138.664 197.68Z" fill="#3577ED"/>
<path d="M115.625 105.664L138.735 186.594L148.091 184.497L134.613 105.664H115.625Z" fill="#3577ED"/>
<path d="M116.339 106.247L139.092 185.925L147.492 184.041L134.192 106.247H116.339ZM138.39 187.27L138.249 186.773L114.922 105.084H135.045L148.701 184.956L138.39 187.27Z" fill="#3577ED"/>
<path d="M106.335 93.9904L105.3 97.7536C103.02 106.051 107.225 114.841 114.635 117.267L128.469 121.794L116.457 160.507L125.463 163.324L147.251 117.314C149.147 113.31 147.701 108.334 144.069 106.365L126.285 96.7304L126.601 95.0717L106.335 93.9904Z" fill="white"/>
<path d="M117.131 160.117L125.207 162.64L146.8 117.044C147.651 115.246 147.809 113.195 147.247 111.261C146.685 109.328 145.479 107.773 143.85 106.894L125.699 97.0575L125.973 95.6197L106.714 94.5965L105.799 97.9256C104.737 101.79 105.09 105.878 106.793 109.44C108.496 112.998 111.334 115.583 114.784 116.71L129.141 121.408L117.131 160.117ZM125.729 164.008L115.792 160.904L127.806 122.183L114.495 117.827C110.778 116.61 107.719 113.827 105.884 109.99C104.048 106.153 103.668 101.747 104.812 97.5846L105.964 93.3912L127.238 94.5267L126.88 96.4064L144.298 105.843C146.183 106.867 147.579 108.661 148.229 110.897C148.88 113.137 148.696 115.513 147.712 117.59L125.729 164.008Z" fill="#3577ED"/>
<path d="M135.486 39.7001C135.486 39.7001 141.677 41.4519 140.557 45.9165C140.176 47.4357 141.76 48.8348 141.867 49.9122C141.942 50.6602 141.301 50.3889 141.235 51.2415C141.148 52.381 140.922 53.6094 140.519 54.9388C139.821 57.2331 137.737 58.6167 135.616 58.1749L132.529 57.5315C131.316 57.2757 130.132 58.1168 129.812 59.4577L129.086 62.5039L119.781 60.1126L124.389 55.7217C124.996 55.1442 125.253 54.2218 125.037 53.3576C124.437 50.9586 123.853 45.9087 128.36 42.8199C134.431 38.6614 135.486 39.7001 135.486 39.7001Z" fill="white"/>
<path d="M135.151 40.1397C135.152 40.1397 135.152 40.1397 135.152 40.1397H135.151ZM120.909 59.8042L128.721 61.8118L129.319 59.3082C129.706 57.6843 131.16 56.6534 132.629 56.9596L135.715 57.6029C137.569 57.9905 139.424 56.7619 140.036 54.7505C140.407 53.5297 140.639 52.3321 140.726 51.1927C140.779 50.5068 141.118 50.2238 141.3 50.0727C141.321 50.0572 141.343 50.0417 141.362 50.0223C141.362 50.0107 141.361 49.9952 141.359 49.9758C141.331 49.6929 141.084 49.2588 140.845 48.8364C140.366 47.9915 139.77 46.9413 140.065 45.7631C140.278 44.9105 140.2 44.1431 139.826 43.4106C138.709 41.2364 135.399 40.2753 135.365 40.2675L135.245 40.2326L135.203 40.19C135.011 40.1396 133.562 39.942 128.633 43.3176C124.499 46.1507 124.921 50.7277 125.54 53.2042C125.808 54.2777 125.49 55.4404 124.728 56.1651L120.909 59.8042ZM129.461 63.1953L118.664 60.4204L124.06 55.2776C124.515 54.8474 124.705 54.1537 124.546 53.5181C123.983 51.2702 123.203 45.6778 128.096 42.3254C133.371 38.7134 135.129 38.8142 135.7 39.163C136.271 39.3374 139.475 40.4109 140.718 42.8254C141.234 43.8291 141.349 44.9221 141.059 46.077C140.889 46.7552 141.309 47.4954 141.716 48.2124C142.032 48.7705 142.331 49.2976 142.386 49.8479C142.457 50.5572 142.103 50.8517 141.914 51.0106C141.784 51.1152 141.768 51.1307 141.755 51.2935C141.661 52.5259 141.411 53.8165 141.013 55.1264C140.237 57.6804 137.879 59.2384 135.527 58.7462L132.44 58.1029C131.497 57.9052 130.565 58.5679 130.316 59.6104L129.461 63.1953Z" fill="#3577ED"/>
<path d="M118.93 45.0799C118.932 44.8357 118.952 44.5915 118.994 44.3474C119.259 42.7933 120.739 41.433 122.054 41.9988C120.48 41.2353 119.757 38.813 120.602 37.1311C121.448 35.4529 123.668 34.9065 125.058 36.0382C125.46 36.3637 125.86 36.8249 126.352 36.7629C126.717 36.7164 126.996 36.387 127.25 36.0886C128.355 34.7786 129.679 33.6043 131.246 33.2167C132.813 32.8331 134.653 33.426 135.467 34.9801C136.706 33.3834 138.736 32.6199 140.578 33.0578C143.329 33.7128 145.578 37.0187 144.474 40.1695C143.86 41.9213 142.378 43.1963 140.749 43.6381C139.499 43.9753 138.086 43.9637 136.812 43.8203C135.961 43.7234 135.538 43.2002 134.828 42.7855C132.903 41.6577 130.696 43.9986 130.541 46.0953C130.424 47.6842 131.178 49.2887 130.836 50.8351C130.388 50.839 130.018 50.0018 129.57 50.0057C129.189 50.1259 129.221 49.0136 128.922 48.1454C128.84 47.9013 128.758 47.6106 128.526 47.5021C127.787 47.1572 127.426 48.4012 127.318 48.967C127.256 49.2848 127.292 49.6104 127.297 49.9321C127.307 50.7731 127.209 51.6179 127.004 52.4279C126.84 53.079 126.596 53.7262 126.163 54.199C125.84 54.5478 125.223 54.9354 124.761 54.7261C124.449 54.5866 124.188 54.1719 123.875 53.9782C123.649 53.8386 123.482 53.6953 123.293 53.4899C122.867 53.0248 122.461 52.5364 122.075 52.0287C121.318 51.0366 120.639 49.967 120.047 48.843C119.444 47.692 118.92 46.3937 118.93 45.0799Z" fill="#3577ED"/>
<path d="M138.734 46.4239C138.734 46.823 138.493 47.1484 138.195 47.1484C137.897 47.1484 137.656 46.823 137.656 46.4239C137.656 46.0209 137.897 45.6954 138.195 45.6954C138.493 45.6954 138.734 46.0209 138.734 46.4239Z" fill="#3577ED"/>
<path d="M121.587 60.0871C121.587 60.0871 117.151 59.653 114.081 64.6215C111.715 68.4505 106.283 85.4449 103.915 93.041C103.352 94.847 104.542 96.7344 106.241 96.7344H126.288C127.557 96.7344 128.648 95.7229 128.892 94.3199L132.607 72.981C133.1 70.1519 132.425 65.8656 130.447 64.0324C128.587 62.3117 125.743 60.5832 121.587 60.0871Z" fill="white"/>
<path d="M121.82 66.1122C123.626 64.2248 126.205 63.6086 128.579 64.3488C130.523 64.9534 132.668 66.0618 132.731 68.015C132.847 71.6077 136.585 79.6728 136.585 79.6728L125.467 88.168C125.467 88.168 117.878 78.4093 118.559 72.9021C119.01 69.263 120.408 67.581 121.82 66.1122Z" fill="white"/>
<path d="M113.055 66.6667C112.696 67.469 112.304 68.4185 111.891 69.4727L124.101 60.5744C123.443 60.3961 122.744 60.2527 122.002 60.1442L113.055 66.6667Z" fill="#F41666"/>
<path d="M130.705 64.3081C130.62 64.2112 130.536 64.1143 130.445 64.029C130.155 63.7616 129.838 63.4942 129.499 63.2306L108.654 78.419C108.361 79.2793 108.069 80.1475 107.781 81.0117L130.705 64.3081Z" fill="#F41666"/>
<path d="M133.275 70.9922C133.113 70.407 132.978 69.8411 132.882 69.3218L104.972 89.6607C104.683 90.5715 104.415 91.4241 104.172 92.1992L133.275 70.9922Z" fill="#F41666"/>
<path d="M129.496 90.8707L129.886 88.6306L118.766 96.7344H121.451L129.496 90.8707Z" fill="#F41666"/>
<path d="M135.749 77.7596C135.559 77.3101 135.347 76.8023 135.127 76.2559L107.023 96.7344H109.709L135.749 77.7596Z" fill="#F41666"/>
<path d="M120.941 82.6545L118.375 96.7344H126.288C127.557 96.7344 128.648 95.7229 128.892 94.3199L129.133 92.9363L120.941 82.6545Z" fill="#3577ED"/>
<path d="M126.619 97.3438C126.491 97.3438 126.366 97.336 126.244 97.3166H106.236C105.255 97.3166 104.369 96.8011 103.802 95.902C103.236 95.0029 103.098 93.8906 103.422 92.852C106.243 83.8025 111.322 68.06 113.651 64.2891C116.855 59.1074 121.432 59.4911 121.626 59.5066C124.907 59.898 127.753 61.0723 130.096 62.9985C130.536 63.3589 130.959 63.8046 131.351 64.324C131.641 64.7038 131.836 64.9789 131.95 65.1649C132.113 65.4285 132.055 65.7889 131.821 65.9711C131.586 66.1571 131.265 66.0912 131.102 65.8276C131.038 65.723 130.893 65.5098 130.565 65.0758C130.225 64.6301 129.863 64.2465 129.487 63.9364C127.293 62.1343 124.615 61.0336 121.528 60.6654C121.369 60.6499 117.351 60.3398 114.499 64.9556C112.156 68.7459 106.653 85.9961 104.396 93.2357C104.184 93.9139 104.275 94.6424 104.645 95.2276C105.015 95.8167 105.595 96.1539 106.236 96.1539H126.322L126.362 96.1578C127.439 96.3477 128.203 95.2276 128.621 92.8248C128.676 92.5109 128.947 92.3055 129.227 92.3675C129.507 92.4256 129.69 92.7318 129.635 93.0496C129.032 96.5066 127.735 97.3438 126.619 97.3438Z" fill="#3577ED"/>
<path d="M125.385 88.9258L120.559 83.0504C120.365 82.814 120.378 82.4459 120.588 82.2289C120.797 82.0118 121.124 82.0234 121.318 82.2598L125.541 87.4027L135.967 79.4345C135.349 77.365 132.545 68.1528 130.741 65.3275C130.575 65.0639 130.627 64.7035 130.859 64.5136C131.092 64.3276 131.414 64.3896 131.58 64.6493C133.699 67.9667 136.935 79.0198 137.071 79.4888L137.193 79.9035L125.385 88.9258Z" fill="#3577ED"/>
<path d="M153.922 117.074L155.72 119.411L156.68 123.299L156.285 125.57C156.158 126.294 156.652 126.969 157.309 126.969H162.724C163.589 126.969 164.291 126.182 164.291 125.205V123.225C164.291 122.438 164.101 121.667 163.742 120.989L161.413 116.602L156.232 112.858L153.922 117.074Z" fill="white"/>
<path d="M125.469 88.1625C125.469 88.1625 133.528 98.673 136.586 102.13L153.928 117.07L156.238 112.854L142.554 95.1811L136.586 79.6673L125.469 88.1625Z" fill="white"/>
<path d="M162.725 127.551H157.31C156.842 127.551 156.403 127.318 156.105 126.911C155.807 126.504 155.689 125.973 155.778 125.458L156.151 123.323L155.255 119.695L153.533 117.455C153.346 117.215 153.369 116.846 153.584 116.637C153.8 116.428 154.127 116.451 154.313 116.695L156.188 119.129L157.211 123.276L156.792 125.683C156.762 125.857 156.802 126.035 156.903 126.175C157.003 126.311 157.152 126.388 157.31 126.388H162.725C163.304 126.388 163.776 125.861 163.776 125.206V123.226C163.776 122.544 163.611 121.873 163.3 121.288L161.033 117.021L155.954 113.351C155.714 113.176 155.644 112.816 155.798 112.545C155.953 112.277 156.272 112.2 156.512 112.37L161.795 116.188L164.187 120.691C164.593 121.458 164.809 122.334 164.809 123.226V125.206C164.809 126.501 163.874 127.551 162.725 127.551Z" fill="#3577ED"/>
<path d="M153.924 117.652C153.814 117.652 153.704 117.614 153.61 117.532L136.217 102.538C133.18 99.1078 125.155 88.6477 125.074 88.543L124.695 88.0469L136.809 78.792L142.993 94.8679L156.623 112.475C156.811 112.715 156.788 113.083 156.574 113.296C156.359 113.505 156.032 113.482 155.845 113.238L142.108 95.4957L136.357 80.54L126.236 88.2756C127.863 90.3878 134.277 98.6931 136.924 101.693L154.238 116.61C154.465 116.807 154.508 117.172 154.334 117.424C154.233 117.575 154.079 117.652 153.924 117.652Z" fill="#3577ED"/>
<path d="M158.283 127.082C158.252 127.082 158.221 127.078 158.19 127.07C157.909 127.016 157.723 126.71 157.774 126.396L158.08 124.505L157.871 122.893C157.83 122.576 158.025 122.281 158.307 122.231C158.59 122.188 158.852 122.405 158.893 122.723L159.126 124.525L158.79 126.605C158.745 126.884 158.527 127.082 158.283 127.082Z" fill="#3577ED"/>
<path d="M160.228 127.082C160.198 127.082 160.166 127.078 160.135 127.07C159.855 127.016 159.668 126.71 159.719 126.396L160.025 124.505L159.816 122.893C159.775 122.576 159.971 122.281 160.253 122.231C160.537 122.188 160.797 122.405 160.838 122.723L161.072 124.525L160.736 126.605C160.69 126.884 160.473 127.082 160.228 127.082Z" fill="#3577ED"/>
<path d="M162.166 127.082C162.135 127.082 162.104 127.078 162.072 127.07C161.792 127.016 161.606 126.71 161.657 126.396L161.963 124.505L161.754 122.893C161.713 122.576 161.908 122.281 162.19 122.231C162.473 122.188 162.735 122.405 162.776 122.723L163.009 124.525L162.673 126.605C162.627 126.884 162.41 127.082 162.166 127.082Z" fill="#3577ED"/>
<path d="M142.639 52.9039C142.535 52.0086 142.198 51.2142 141.438 50.9661C140.284 50.5863 138.873 51.5165 137.931 52.1753C137.036 52.7993 136.016 53.1946 134.971 53.3225C134.27 53.4078 133.542 53.369 132.895 53.0551C131.162 52.2063 131.424 50.4275 130.832 48.761C130.661 48.2765 130.214 47.8579 129.772 47.9975C129.36 48.1292 129.159 48.6873 129.191 49.1718C129.235 49.8384 129.537 50.4236 129.644 51.0708C129.895 52.5823 129.361 54.3766 129.846 55.8067C130.13 56.6477 130.789 57.2911 131.408 57.8143C133.336 59.442 135.782 60.4923 138.142 59.9846C139.3 59.7327 140.449 59.0002 141.262 57.9848C141.831 57.2717 142.193 56.423 142.435 55.5083C142.609 54.8533 142.746 53.8263 142.639 52.9039Z" fill="#3577ED"/>
<path d="M140.51 97.1602C140.46 97.1602 140.415 97.1602 140.375 97.1524C140.092 97.1137 139.891 96.823 139.926 96.5053C139.961 96.1914 140.214 95.9628 140.492 95.9977C140.521 95.9977 140.722 96.0055 140.847 95.8078C141.013 95.5482 141.335 95.4902 141.568 95.6762C141.8 95.8622 141.854 96.2224 141.688 96.4859C141.348 97.0206 140.837 97.1602 140.51 97.1602Z" fill="#3577ED"/>
<path d="M127.564 125.332C127.508 125.332 127.451 125.32 127.395 125.301C127.125 125.196 126.982 124.863 127.075 124.561L129.742 115.872C129.835 115.57 130.129 115.407 130.399 115.511C130.668 115.616 130.811 115.949 130.718 116.252L128.052 124.941C127.978 125.181 127.778 125.332 127.564 125.332Z" fill="#3577ED"/>
<path d="M210.809 48.3174C211.049 48.1895 211.29 48.0617 211.533 47.9415C212.57 47.4261 213.678 46.9765 214.809 47.0657C215.939 47.1587 217.097 47.9299 217.406 49.1585C217.523 49.6197 217.514 50.108 217.489 50.5886C217.419 51.9566 217.381 53.1774 216.599 54.2277C216.075 54.9291 215.801 55.7624 215.542 56.6266C214.947 58.6109 214.593 60.6844 213.84 62.6067C213.728 62.8935 213.607 63.1764 213.477 63.4554C211.625 67.362 207.876 69.7726 205.988 73.6559C204.507 76.6982 204.272 80.4536 202.378 83.1898C201.087 85.0578 199.15 86.2398 197.152 86.9761C195.579 87.5575 193.899 87.8947 192.266 87.5962C190.632 87.3017 189.048 86.2941 188.223 84.6818C187.162 82.6084 187.531 79.9188 188.563 77.8298C189.595 75.737 191.197 74.0938 192.704 72.408C195.446 69.3385 197.957 66.0094 200.202 62.4672C200.662 61.7424 201.225 61.1378 201.578 60.3433C202.028 59.3279 202.51 58.3358 203.051 57.3785C203.994 55.7159 205.11 54.1928 206.223 52.6697C206.945 51.6814 207.674 50.6854 208.557 49.8793C209.244 49.2553 210.013 48.7554 210.809 48.3174Z" fill="#F41666"/>
<path d="M214.905 59.7862C215.5 58.5537 215.092 57.0074 213.994 56.3369C212.897 55.6703 211.525 56.1276 210.93 57.3639C210.335 58.5964 210.743 60.1427 211.84 60.8132C212.938 61.4837 214.31 61.0225 214.905 59.7862Z" fill="white"/>
<path d="M212.917 61.7031C212.47 61.7031 212.018 61.583 211.599 61.3272C211.348 61.1722 211.255 60.8195 211.391 60.5366C211.526 60.2537 211.839 60.149 212.091 60.3041C212.935 60.8195 213.997 60.4629 214.455 59.5134C214.677 59.0522 214.726 58.5213 214.594 58.0175C214.461 57.5175 214.162 57.1029 213.753 56.851C213.666 56.8006 213.575 56.754 213.482 56.7192C213.212 56.6145 213.068 56.2851 213.16 55.9828C213.252 55.6766 213.545 55.5139 213.815 55.6185C213.963 55.6728 214.107 55.7464 214.245 55.8278C214.897 56.227 215.373 56.8858 215.584 57.6881C215.795 58.4864 215.717 59.3352 215.363 60.0677C214.861 61.1102 213.904 61.7031 212.917 61.7031Z" fill="#3577ED"/>
<path d="M203.18 38.3705C202.075 38.5062 200.984 38.7698 199.979 39.2503C198.498 39.9557 197.173 41.0369 196.043 42.3198C194.798 43.7343 193.98 45.5016 192.905 47.0596C190.666 50.3034 186.909 50.3926 184.218 52.9194C182.317 54.7022 181.503 57.1089 180.412 59.5079C179.332 61.8875 177.489 63.4183 175.457 64.705C173.626 65.8638 171.69 66.8714 170.107 68.4255C168.524 69.9796 167.31 72.2353 167.495 74.5916C167.747 77.7851 170.505 80.1143 173.303 80.7189C176.794 81.4707 180.447 80.1762 183.406 77.9594C186.474 75.6573 189.069 72.6461 191.91 70.0184C193.092 68.9255 194.372 67.9179 195.232 66.4606C195.659 65.7398 196.36 65.4375 197.026 65.0499C198.898 63.957 200.77 62.8641 202.642 61.7674C204.514 60.6744 206.387 59.5816 208.259 58.4886C209.195 57.9422 210.131 57.3957 211.067 56.8493C211.535 56.5741 212.003 56.3028 212.471 56.0277C212.715 55.8843 212.958 55.7448 213.201 55.6014C213.348 55.5161 213.657 55.2409 213.819 55.2409C215.149 54.4619 216.52 53.648 217.458 52.3342C218.94 50.2569 219.034 47.1836 218.011 44.7807C216.988 42.3779 214.995 40.6145 212.799 39.6185C210.603 38.6264 208.205 38.3279 205.839 38.2659C204.968 38.2427 204.069 38.2659 203.18 38.3705Z" fill="#F41666"/>
<path d="M201.476 70.6936L205.672 61.0706L200.235 53.9279L194.586 66.8878C194.535 67.0079 194.57 67.1474 194.669 67.2172L195.72 67.9574C197.031 68.8798 198.42 69.651 199.868 70.2634L201.192 70.8215C201.302 70.8641 201.424 70.8098 201.476 70.6936Z" fill="white"/>
<path d="M195.158 66.8797L195.987 67.4649C197.266 68.364 198.63 69.1197 200.043 69.7166L201.122 70.17L205.052 61.1555L200.347 54.9778L195.158 66.8797ZM201.006 70.4374C201.006 70.4374 201.006 70.4374 201.006 70.4374H201.006ZM201.268 71.418C201.18 71.418 201.091 71.3986 201.005 71.3637L199.68 70.8056C198.204 70.1816 196.777 69.3911 195.44 68.4493L194.389 67.709C194.065 67.4804 193.947 67.0192 194.116 66.6317L200.111 52.8811L206.279 60.9811L201.933 70.949C201.804 71.2436 201.543 71.418 201.268 71.418Z" fill="#3577ED"/>
<path d="M215.323 53.688C215.323 53.688 209.023 70.5815 201.209 66.0587C196.767 63.4853 196.967 56.1644 197.966 50.3239C198.957 44.5339 203.69 40.5071 208.897 41.1389C213.242 41.6659 217.165 44.4835 215.323 53.688Z" fill="white"/>
<path d="M215.323 53.6868H215.327H215.323ZM207.844 41.657C203.358 41.657 199.347 45.3272 198.474 50.4313C197.523 55.9888 197.267 63.1198 201.446 65.5382C202.867 66.3637 204.279 66.4683 205.762 65.8599C210.783 63.802 214.543 54.2525 214.83 53.5046C215.604 49.6019 215.361 46.6177 214.106 44.645C213.061 42.9979 211.29 42.0136 208.842 41.7151C208.508 41.6764 208.174 41.657 207.844 41.657ZM203.905 67.4062C202.914 67.4062 201.933 67.1311 200.973 66.573C197.215 64.3988 196 58.7404 197.459 50.2103C198.498 44.1412 203.549 39.9052 208.953 40.5602C211.707 40.8935 213.723 42.0407 214.946 43.9668C216.385 46.234 216.681 49.5437 215.827 53.8146L215.8 53.9115C215.636 54.3494 211.741 64.6468 206.117 66.9528C205.376 67.2551 204.638 67.4062 203.905 67.4062Z" fill="#3577ED"/>
<path d="M196.979 50.396C196.149 51.4463 196.231 53.0546 197.163 53.9886C198.095 54.9226 199.524 54.8297 200.354 53.7833C201.185 52.733 201.103 51.1246 200.171 50.1906C199.239 49.2527 197.81 49.3457 196.979 50.396Z" fill="white"/>
<path d="M197.469 54.8281C197.375 54.8281 197.28 54.7971 197.195 54.739C197.063 54.6459 196.936 54.5375 196.82 54.4212C196.266 53.867 195.938 53.0996 195.895 52.2663C195.853 51.4331 196.101 50.6309 196.595 50.0069C197.088 49.3829 197.768 49.0147 198.508 48.9682C199.25 48.9178 199.962 49.2008 200.515 49.755C200.728 49.9682 200.747 50.3363 200.557 50.5766C200.367 50.813 200.041 50.8363 199.828 50.6231C199.48 50.2743 199.035 50.096 198.567 50.127C198.102 50.158 197.676 50.3906 197.366 50.782C197.056 51.1735 196.9 51.6773 196.926 52.2005C196.953 52.7237 197.16 53.2042 197.507 53.5531C197.581 53.6267 197.661 53.6964 197.744 53.7545C197.986 53.9251 198.059 54.2816 197.907 54.5529C197.809 54.7312 197.641 54.8281 197.469 54.8281Z" fill="#3577ED"/>
<path d="M218.167 45.4975C217.504 44.2574 216.515 42.6335 215.308 42.0095C212.087 40.3469 211.944 48.598 212.093 50.3614C212.205 51.6907 212.555 53.0123 213.178 54.1556C214.877 57.2638 217.398 54.8841 218.456 52.2604C219.115 50.6249 219.198 48.722 218.753 47.0013C218.61 46.451 218.41 45.9549 218.167 45.4975Z" fill="#F41666"/>
<path d="M203.33 40.9324C203.272 40.9517 203.215 40.9712 203.157 40.9944C202.418 41.2696 201.713 41.6726 201.019 42.0679C199.551 42.9051 198.039 43.8546 197.169 45.4242C197.096 45.5482 197.033 45.6839 196.976 45.8195C196.775 46.2923 196.651 46.8349 196.74 47.3581C196.76 47.4782 196.79 47.6061 196.828 47.7185C196.869 47.8464 196.985 47.9161 197.074 48.0014C197.315 48.2223 197.556 48.4471 197.797 48.668C198.263 49.0982 198.738 49.5362 199.296 49.792C199.666 49.9625 200.062 50.0477 200.457 50.1136C200.625 50.1446 200.793 50.1679 200.961 50.1872C201.895 50.3035 202.839 50.3112 203.774 50.2143C204.71 50.1174 205.637 49.916 206.54 49.6214C207.443 49.323 208.321 48.9315 209.158 48.451C209.994 47.9665 210.79 47.3968 211.528 46.7418C211.896 46.4163 212.251 46.0675 212.588 45.6993C212.756 45.5172 212.927 45.3311 213.082 45.1335C213.118 45.087 213.136 45.0482 213.161 44.994C213.235 44.8428 213.343 44.7111 213.431 44.5677C213.73 44.0832 214.059 43.467 213.981 42.8508C213.959 42.6802 213.95 42.5097 213.897 42.3431C213.815 42.0873 213.673 41.8548 213.509 41.6533C213.175 41.2463 212.747 40.9401 212.316 40.6766C211.578 40.227 210.814 40.3821 210.012 40.3394C208.885 40.2852 207.823 40.0023 206.685 40.1302C206.12 40.1922 205.639 40.3627 205.101 40.5138C204.514 40.6766 203.91 40.7425 203.33 40.9324Z" fill="#F41666"/>
<path d="M203.633 60.2109C203.551 60.2109 203.466 60.1915 203.388 60.1411L202.41 59.5443C202.214 59.4242 202.084 59.1955 202.071 58.9397C202.059 58.6956 202.158 58.463 202.337 58.3235C204.44 56.6725 204.858 55.1261 204.862 55.1106C204.94 54.8045 205.224 54.6262 205.498 54.7115C205.77 54.7968 205.931 55.1106 205.857 55.4207C205.84 55.4943 205.437 57.0949 203.44 58.8506L203.881 59.1218C204.131 59.273 204.224 59.6257 204.088 59.9086C203.994 60.1024 203.817 60.2109 203.633 60.2109Z" fill="#3577ED"/>
<path d="M210.036 56.918C209.847 56.918 209.664 56.8017 209.574 56.5963C209.108 55.554 208.162 55.5114 208.122 55.5114C207.839 55.5036 207.612 55.2401 207.617 54.9185C207.622 54.6047 207.85 54.349 208.131 54.349C208.133 54.349 208.135 54.349 208.136 54.349C208.202 54.349 209.744 54.3838 210.497 56.0771C210.625 56.3638 210.522 56.7125 210.267 56.8559C210.193 56.8985 210.114 56.918 210.036 56.918Z" fill="#3577ED"/>
<path d="M204.937 53.2656C204.754 53.2656 204.578 53.1571 204.484 52.9634C203.982 51.9404 203.033 51.9366 202.995 51.9443C202.993 51.9443 202.99 51.9443 202.987 51.9443C202.707 51.9443 202.475 51.6924 202.469 51.3747C202.463 51.057 202.684 50.7935 202.967 50.7819C203.03 50.778 204.575 50.7431 205.388 52.4015C205.526 52.6805 205.435 53.037 205.185 53.192C205.107 53.2385 205.021 53.2656 204.937 53.2656Z" fill="#3577ED"/>
<path d="M208.415 57.7741C208.241 58.0724 207.919 58.1809 207.696 58.0181C207.473 57.8515 207.435 57.4757 207.609 57.1773C207.784 56.879 208.106 56.7666 208.329 56.9332C208.552 57.0959 208.59 57.4718 208.415 57.7741Z" fill="#3577ED"/>
<path d="M203.556 54.6231C203.382 54.9253 203.059 55.0338 202.837 54.8672C202.614 54.7045 202.575 54.3286 202.75 54.0263C202.925 53.728 203.247 53.6195 203.469 53.7823C203.692 53.9489 203.731 54.3247 203.556 54.6231Z" fill="#3577ED"/>
<path d="M205.9 61.8155C206.27 62.2998 206.19 63.0593 205.72 63.5126C205.252 63.966 204.571 63.9389 204.201 63.4545C203.831 62.9702 203.912 62.2107 204.381 61.7573C204.85 61.304 205.53 61.3311 205.9 61.8155Z" fill="#F41666"/>
<path d="M204.365 63.668C204.108 63.668 203.922 63.6098 203.886 63.5982C203.612 63.5052 203.456 63.1836 203.537 62.8736C203.617 62.5714 203.9 62.3932 204.173 62.4823C204.188 62.4862 204.493 62.5675 204.762 62.3893C204.983 62.2421 205.144 61.9437 205.242 61.5058C205.312 61.192 205.591 61.0021 205.869 61.0796C206.145 61.161 206.313 61.4749 206.244 61.7848C206.074 62.552 205.745 63.0945 205.265 63.4045C204.943 63.6098 204.619 63.668 204.365 63.668Z" fill="#3577ED"/>
<path d="M188.928 101.707V105.118L207.996 115.849C209.744 116.834 210.819 118.876 210.742 121.078L195.519 160.465L180.641 101.707H188.928Z" fill="#3577ED"/>
<path d="M203.05 191.091L195.109 195.637L189.828 183.952L197.768 179.406L203.05 191.091Z" fill="#3577ED"/>
<path d="M195.519 161.051C195.451 161.051 195.381 161.035 195.314 161.004C195.052 160.876 194.932 160.531 195.046 160.237L210.229 120.95C210.26 119.024 209.301 117.238 207.765 116.373L188.413 105.479V102.293H180.641C180.356 102.293 180.125 102.034 180.125 101.712C180.125 101.39 180.356 101.131 180.641 101.131H189.446V104.762L208.228 115.331C210.153 116.416 211.343 118.683 211.259 121.105L211.255 121.214L211.216 121.311L195.993 160.702C195.909 160.923 195.719 161.051 195.519 161.051Z" fill="#3577ED"/>
<path d="M170.838 100.071L169.589 102.261C167.561 105.815 166.733 109.973 167.113 114.023C167.471 117.825 169.182 121.305 171.768 123.782L173.235 125.189C174.785 126.673 176.071 128.479 177.024 130.502L187.901 185.178C188.428 186.299 189.461 186.996 190.587 186.996H201.767C203.149 186.996 204.042 185.353 203.411 183.969L186.413 114.356L188.111 105.23V101.711L170.838 100.071Z" fill="white"/>
<path d="M187.799 120.005L187.742 119.951C185.217 117.622 183.613 114.405 183.225 110.898C182.865 107.642 183.348 104.325 184.585 101.372L182.836 101.209C181.654 104.313 181.209 107.751 181.581 111.126C182.022 115.11 183.836 118.757 186.691 121.393L188.181 122.769C188.312 122.889 188.438 123.017 188.564 123.141L187.799 120.005Z" fill="#FE5E31"/>
<path d="M194.379 186.996L182.089 128.607L182.067 128.495L182.021 128.398C181.042 126.243 179.725 124.34 178.108 122.747L176.659 121.317C174.203 118.895 172.693 115.62 172.407 112.101C172.089 108.194 172.973 104.245 174.896 100.978L175.187 100.482L173.315 100.308C171.327 103.854 170.417 108.086 170.757 112.268C171.082 116.271 172.791 119.98 175.568 122.72L177.017 124.146C178.451 125.561 179.623 127.243 180.501 129.146L192.677 186.996H194.379Z" fill="#FE5E31"/>
<path d="M187.706 127.033L187.684 126.925L187.638 126.824C186.659 124.669 185.342 122.77 183.725 121.174L182.277 119.743C179.82 117.321 178.309 114.05 178.024 110.527C177.754 107.206 178.357 103.854 179.726 100.912L177.951 100.745C176.654 103.83 176.097 107.28 176.374 110.698C176.699 114.698 178.408 118.41 181.185 121.146L182.634 122.577C184.068 123.991 185.24 125.669 186.118 127.576L198.614 186.996H200.316L187.706 127.033Z" fill="#FE5E31"/>
<path d="M201.775 187.578H190.866C189.378 187.578 188.022 186.66 187.326 185.179L187.294 185.113L176.543 130.708C175.62 128.767 174.397 127.061 172.908 125.631L171.442 124.228C168.691 121.593 166.975 117.989 166.608 114.086C166.209 109.846 167.116 105.532 169.162 101.948L170.412 99.7579C170.566 99.4866 170.885 99.4091 171.126 99.5835C171.365 99.7579 171.435 100.115 171.281 100.386L170.032 102.575C168.112 105.939 167.261 109.986 167.635 113.962C167.974 117.57 169.563 120.899 172.111 123.341L173.578 124.748C175.185 126.286 176.5 128.131 177.488 130.231L177.521 130.301L188.271 184.702C188.796 185.761 189.784 186.415 190.866 186.415H201.775C202.243 186.415 202.667 186.148 202.911 185.698C203.155 185.249 203.173 184.702 202.959 184.234L202.92 184.121L185.923 114.512C185.847 114.202 186.009 113.884 186.283 113.799C186.558 113.714 186.843 113.896 186.918 114.206L203.903 183.761C204.256 184.578 204.216 185.524 203.793 186.303C203.36 187.101 202.606 187.578 201.775 187.578Z" fill="#3577ED"/>
<path d="M192.085 189.382L190.479 195.169L190.368 198.521C190.33 199.691 191.209 200.637 192.246 200.54L214.618 198.482C215.626 198.389 216.322 197.304 216.082 196.196L215.89 195.316L207.911 193.719L202.404 189.107L201.062 188.84L200.533 190.227C200.011 191.595 198.846 192.514 197.524 192.595L196.44 192.665C194.849 192.762 193.401 191.634 192.925 189.921L192.777 189.39L192.085 189.382Z" fill="white"/>
<path d="M190.994 195.269L190.885 198.54C190.873 198.935 191.009 199.315 191.262 199.586C191.517 199.862 191.853 199.993 192.205 199.962L214.577 197.901C214.906 197.87 215.206 197.68 215.4 197.377C215.593 197.075 215.659 196.695 215.581 196.335L215.469 195.819L207.701 194.265L202.195 189.657L201.375 189.494L201.008 190.456C200.405 192.041 199.081 193.083 197.553 193.176L196.469 193.242C194.643 193.362 192.98 192.064 192.433 190.095L192.431 190.091L190.994 195.269ZM192.105 201.129C191.527 201.129 190.968 200.877 190.548 200.427C190.082 199.924 189.829 199.222 189.853 198.497L189.967 195.071L191.708 188.797L193.158 188.816L193.418 189.746C193.825 191.207 195.056 192.165 196.413 192.083L197.496 192.017C198.63 191.944 199.612 191.173 200.059 189.998L200.749 188.188L202.616 188.56L208.122 193.169L216.313 194.808L216.584 196.06C216.735 196.75 216.608 197.478 216.238 198.059C215.867 198.637 215.292 199.001 214.661 199.059L192.289 201.121C192.228 201.125 192.166 201.129 192.105 201.129Z" fill="#3577ED"/>
<path d="M170.851 100.072C169.153 98.719 168.381 96.3123 168.936 94.0528C170.647 87.0962 175.672 72.6597 188.711 66.8192C190.987 65.8 193.492 65.6139 195.866 66.296L200.475 69.1446L203.398 75.6284C203.584 77.8917 197.652 91.0144 197.652 91.0144L188.941 101.711H175.424C173.786 101.711 172.188 101.137 170.851 100.072Z" fill="white"/>
<path d="M192.987 66.4672C191.596 66.4672 190.212 66.7656 188.889 67.3586C176.323 72.9859 171.303 86.5775 169.428 94.1775C168.929 96.2044 169.615 98.3825 171.137 99.5955C172.394 100.595 173.872 101.126 175.412 101.126H188.702L197.211 90.6779C199.455 85.7056 202.922 77.3769 202.874 75.7298L201.993 72.4395C201.634 71.0986 200.834 69.994 199.741 69.3274L195.665 66.8393C194.78 66.5913 193.882 66.4672 192.987 66.4672ZM189.156 102.289H175.412C173.657 102.289 171.972 101.684 170.54 100.541C168.664 99.0452 167.817 96.3633 168.433 93.8674C170.359 86.0582 175.527 72.0907 188.507 66.2774C190.904 65.2039 193.489 65.0139 195.982 65.7309L196.1 65.7813L200.233 68.3043C201.568 69.1181 202.544 70.4668 202.982 72.1023L203.9 75.5709C204.094 77.935 198.714 89.9144 198.099 91.2747L198.068 91.3445L189.156 102.289Z" fill="#3577ED"/>
<path d="M193.016 81.1194L197.982 90.2658L189.398 101.137L193.016 81.1194Z" fill="#3577ED"/>
<path d="M190.407 198.273C190.135 198.273 189.907 198.033 189.891 197.723C189.875 197.402 190.093 197.13 190.378 197.111L206.548 196.073C206.829 196.053 207.077 196.297 207.093 196.619C207.109 196.941 206.892 197.216 206.607 197.231L190.437 198.27C190.427 198.273 190.417 198.273 190.407 198.273Z" fill="#3577ED"/>
<path d="M193.778 70.9404C195.344 69.3049 197.58 68.7701 199.637 69.4134C201.321 69.9366 203.181 70.8978 203.236 72.5914C203.337 75.7073 206.576 82.695 206.576 82.695L196.939 90.0586C196.939 90.0586 190.361 81.5982 190.952 76.8274C191.342 73.6727 192.554 72.2155 193.778 70.9404Z" fill="white"/>
<path d="M196.853 90.8164L192.629 85.6735C192.436 85.4371 192.449 85.0728 192.658 84.8519C192.868 84.6349 193.194 84.6504 193.388 84.8868L197.008 89.2933L205.968 82.4491C205.463 80.5074 203.128 72.0548 200.158 69.6171C199.927 69.4272 199.877 69.0629 200.045 68.8032C200.213 68.5436 200.536 68.4854 200.767 68.6753C204.404 71.6634 206.958 82.0964 207.065 82.5382L207.162 82.9412L196.853 90.8164Z" fill="#3577ED"/>
<path d="M221.609 115.115L223.168 117.138L224 120.51L223.657 122.474C223.547 123.106 223.975 123.691 224.546 123.691H229.239C229.989 123.691 230.597 123.005 230.597 122.161V120.444C230.597 119.762 230.433 119.091 230.121 118.506L228.102 114.704L223.612 111.46L221.609 115.115Z" fill="white"/>
<path d="M196.93 90.0578C196.93 90.0578 203.915 99.1692 206.567 102.161L221.598 115.117L223.6 111.463L211.739 96.1425L206.567 82.6943L196.93 90.0578Z" fill="white"/>
<path d="M229.232 124.273H224.539C224.112 124.273 223.712 124.06 223.441 123.688C223.17 123.32 223.061 122.836 223.143 122.363L223.463 120.53L222.695 117.421L221.212 115.495C221.025 115.251 221.049 114.883 221.264 114.674C221.48 114.464 221.806 114.492 221.993 114.732L223.628 116.856L224.523 120.487L224.157 122.588C224.126 122.762 224.195 122.89 224.239 122.952C224.282 123.01 224.379 123.111 224.539 123.111H229.232C229.696 123.111 230.074 122.684 230.074 122.161V120.444C230.074 119.867 229.935 119.301 229.671 118.805L227.714 115.119L223.326 111.949C223.086 111.775 223.016 111.414 223.17 111.147C223.324 110.876 223.644 110.798 223.884 110.969L228.477 114.29L230.558 118.208C230.917 118.883 231.107 119.658 231.107 120.444V122.161C231.107 123.324 230.266 124.273 229.232 124.273Z" fill="#3577ED"/>
<path d="M221.609 115.695C221.5 115.695 221.389 115.657 221.296 115.575L206.213 102.569C203.579 99.5962 196.621 90.5235 196.551 90.4344L196.172 89.9383L206.805 81.8151L212.193 95.8253L224.001 111.076C224.189 111.32 224.166 111.684 223.951 111.897C223.737 112.107 223.41 112.083 223.223 111.839L211.309 96.4531L206.352 83.5669L197.712 90.1669C199.199 92.097 204.651 99.1505 206.92 101.724L221.923 114.649C222.15 114.847 222.193 115.211 222.02 115.467C221.918 115.614 221.765 115.695 221.609 115.695Z" fill="#3577ED"/>
<path d="M225.376 123.863C225.346 123.863 225.315 123.859 225.283 123.852C225.003 123.794 224.817 123.491 224.868 123.177L225.131 121.546L224.951 120.163C224.91 119.845 225.105 119.551 225.388 119.504C225.671 119.458 225.932 119.679 225.973 119.996L226.178 121.569L225.884 123.383C225.838 123.666 225.621 123.859 225.376 123.863Z" fill="#3577ED"/>
<path d="M227.064 123.863C227.033 123.863 227.002 123.859 226.971 123.852C226.69 123.794 226.504 123.491 226.555 123.177L226.818 121.546L226.639 120.163C226.598 119.845 226.793 119.551 227.075 119.504C227.359 119.458 227.62 119.679 227.661 119.996L227.865 121.569L227.571 123.383C227.526 123.666 227.309 123.859 227.064 123.863Z" fill="#3577ED"/>
<path d="M228.751 123.863C228.721 123.863 228.69 123.859 228.658 123.852C228.378 123.794 228.192 123.491 228.243 123.177L228.506 121.546L228.326 120.163C228.285 119.845 228.48 119.551 228.762 119.504C229.045 119.458 229.307 119.679 229.348 119.996L229.552 121.569L229.259 123.383C229.214 123.666 228.996 123.859 228.751 123.863Z" fill="#3577ED"/>
<path d="M209.968 97.9297C209.922 97.9297 209.88 97.9258 209.844 97.922C209.561 97.8832 209.359 97.5926 209.395 97.2748C209.429 96.961 209.68 96.7363 209.959 96.7673C209.99 96.7673 210.122 96.7672 210.206 96.6355C210.371 96.3759 210.693 96.3139 210.926 96.4999C211.158 96.6859 211.212 97.0501 211.046 97.3136C210.735 97.8018 210.267 97.9297 209.968 97.9297Z" fill="#3577ED"/>
<path d="M34.9108 85.6211H31.6113C29.5692 85.6211 27.9141 83.7569 27.9141 81.4587V77.7459C27.9141 75.4477 29.5692 73.5835 31.6113 73.5835H34.9108C36.9525 73.5835 38.6076 75.4477 38.6076 77.7459V81.4587C38.6076 83.7569 36.9525 85.6211 34.9108 85.6211Z" fill="#F41666"/>
<path d="M32.6661 81.6523L31.1016 79.8932L31.9954 78.8857L32.6661 79.6413L34.5278 77.5451L35.4216 78.5525L32.6661 81.6523Z" fill="white"/>
<path d="M239.356 47.5195H236.057C234.015 47.5195 232.359 45.6554 232.359 43.3572V39.6443C232.359 37.3461 234.015 35.482 236.057 35.482H239.356C241.398 35.482 243.053 37.3461 243.053 39.6443V43.3572C243.053 45.6554 241.398 47.5195 239.356 47.5195Z" fill="#F41666"/>
<path d="M237.111 43.5547L235.547 41.7917L236.441 40.7881L237.111 41.5437L238.973 39.4474L239.867 40.451L237.111 43.5547Z" fill="white"/>
<path d="M150.16 12.0391H146.861C144.819 12.0391 143.164 10.175 143.164 7.87677V4.16395C143.164 1.86574 144.819 0.00158501 146.861 0.00158501H150.16C152.203 0.00158501 153.858 1.86574 153.858 4.16395V7.87677C153.858 10.175 152.203 12.0391 150.16 12.0391Z" fill="#F41666"/>
<path d="M147.916 8.06641L146.352 6.30724L147.245 5.2998L147.916 6.05538L149.778 3.95914L150.672 4.96658L147.916 8.06641Z" fill="white"/>
<path d="M53.4467 36.5475C52.3401 37.028 51.1092 36.2723 50.8854 34.9353C50.7191 33.9354 51.2311 32.9122 52.0719 32.5479C53.1785 32.0674 54.409 32.8231 54.6328 34.1601C54.7995 35.16 54.2875 36.1832 53.4467 36.5475ZM49.462 36.2491C49.5133 36.3847 49.4868 36.5397 49.3942 36.6444L48.8054 37.3032C48.6546 37.4737 48.6543 37.7489 48.8051 37.9194L49.7543 38.9891C49.9048 39.1596 50.1496 39.1596 50.3004 38.9929L50.8847 38.3341C50.9814 38.2256 51.1271 38.2024 51.2514 38.2682C51.3261 38.307 51.4022 38.3418 51.4793 38.3728C51.6067 38.4271 51.6948 38.5628 51.6948 38.7139L51.6935 39.6441C51.6931 39.8843 51.8656 40.0781 52.0791 40.0781L53.4233 40.082C53.6368 40.082 53.8099 39.8882 53.8103 39.6479L53.8117 38.7101C53.8117 38.5628 53.8915 38.4272 54.0138 38.3768C54.0919 38.3419 54.1828 38.2993 54.2665 38.2605C54.3867 38.2024 54.5261 38.2334 54.618 38.338L55.2051 39.0007C55.3555 39.1713 55.6 39.1713 55.7511 39.0007L56.7039 37.935C56.8547 37.7644 56.8553 37.4893 56.7049 37.3187L56.1223 36.6599C56.0259 36.5514 56.0059 36.3886 56.0628 36.2491C56.0968 36.1638 56.1289 36.0786 56.1578 35.9933C56.2063 35.8499 56.3237 35.7491 56.4601 35.7491L57.285 35.753C57.4985 35.753 57.6721 35.5592 57.6724 35.319L57.6758 33.8036C57.6762 33.5633 57.5037 33.3695 57.2906 33.3695L56.457 33.3657C56.3258 33.3657 56.2084 33.2765 56.1609 33.137C56.1306 33.0517 56.0944 32.9471 56.059 32.8541C56.0077 32.7185 56.0345 32.5634 56.1271 32.4588L56.7169 31.7999C56.8681 31.6294 56.8688 31.3542 56.7183 31.1837L55.7704 30.1102C55.62 29.9397 55.3755 29.9397 55.2247 30.1102L54.639 30.7652C54.5423 30.8737 54.3966 30.893 54.2723 30.831C54.1938 30.7923 54.1143 30.7535 54.0337 30.7186C53.9057 30.6644 53.8179 30.5326 53.8179 30.3776V29.4513C53.8179 29.2111 53.6447 29.0173 53.4312 29.0173H52.087C51.8739 29.0173 51.7007 29.2111 51.7007 29.4513V30.3892C51.7007 30.5365 51.6212 30.6683 51.4989 30.7226C51.4208 30.7574 51.3302 30.7962 51.2462 30.8388C51.1261 30.897 50.9869 30.8659 50.8947 30.7613L50.3069 30.0985C50.1561 29.928 49.9113 29.928 49.7605 30.0985L48.8099 31.1682C48.6587 31.3388 48.6587 31.6139 48.8095 31.7844L49.3928 32.4394C49.4892 32.5479 49.5099 32.7146 49.4531 32.8541C49.419 32.9394 49.3873 33.0246 49.3584 33.1099C49.3102 33.2533 49.1928 33.354 49.0561 33.354H48.2314C48.018 33.354 47.8451 33.5478 47.8448 33.7881L47.8438 35.2996C47.8438 35.5399 48.0162 35.7336 48.2297 35.7336L49.2837 35.7375C49.2878 35.753 49.3763 36.0204 49.462 36.2491Z" fill="white"/>
<path d="M106.321 19.8867H112.011C112.011 23.4018 109.442 26.293 106.321 26.293C103.201 26.293 100.633 23.4018 100.633 19.8867C100.633 16.3755 103.201 13.4842 106.321 13.4842C106.327 13.4842 106.333 13.4842 106.338 13.4842L106.321 19.8867Z" fill="white"/>
<path d="M107.466 18.6094L107.422 13.4858C107.436 13.4858 107.451 13.4858 107.466 13.4858C109.963 13.4858 112.018 15.7996 112.018 18.6094H107.466Z" fill="white"/>
<path d="M184.001 23.0527C184.001 20.9637 182.392 19.3011 180.494 19.5453C179.096 19.7236 177.954 20.9715 177.759 22.5411C177.616 23.6844 177.961 24.7424 178.594 25.4865C178.935 25.8896 179.117 26.4321 179.117 26.9902V27.7344H182.61V26.9902C182.61 26.4399 182.785 25.8973 183.126 25.4981C183.668 24.8625 184.001 24.0022 184.001 23.0527Z" fill="white"/>
<path d="M182.595 29.3359H179.102V28.4292H182.595V29.3359Z" fill="white"/>
<path d="M182.595 30.7227H179.102V29.816H182.595V30.7227Z" fill="white"/>
<path d="M181.316 31.9531H180.375V31.0426H181.316V31.9531Z" fill="white"/>
</svg>
